<svg xmlns="http://www.w3.org/2000/svg" viewBox="0 0 873.45 920.05"><defs><style>.cls-1{fill:#fafbf6;}.cls-2{fill:#839c7c;}.cls-3{fill:#f2e1e9;}.cls-4{fill:#51735e;}.cls-5{fill:#efefef;}.cls-6{fill:none;}.cls-7{fill:#f5bfd3;}.cls-8{fill:#fae3eb;}.cls-9{fill:#e6bdd0;}</style></defs><title>Asset 3</title><g id="Layer_2" data-name="Layer 2"><g id="Objects"><path class="cls-1" d="M106.14,631.59a27.16,27.16,0,0,1-3.76,5.17h0c-.52-1.35-1-2.7-1.54-4.06q-3.76-3.72-7.38-7.61a70.35,70.35,0,0,1-.68-16.65,75.6,75.6,0,0,1,1.93-12.18c.13.19.24.38.36.58q3.22,12.17,7.23,24c0,.64.06,1.28.07,1.93l.43-.49Q104.4,627,106.14,631.59Z"/><path class="cls-2" d="M102.38,636.77a18.26,18.26,0,0,1-3,2.63l-.31.19c-8.43,5.4-27.88,5.19-34,12.27A60.44,60.44,0,0,1,81.1,638.76,84.22,84.22,0,0,1,59,641.41c5.47-6.1,14.23-6.36,21.79-6.11l-26.1-15.07,31,5.33,1.65.29a21.63,21.63,0,0,0-8.11-10.76,57.23,57.23,0,0,1,14.48,11.14c-.07-.37-.13-.75-.18-1.12q3.62,3.9,7.38,7.61C101.35,634.07,101.86,635.43,102.38,636.77Z"/><path id="_Path_" data-name="&lt;Path&gt;" class="cls-2" d="M44.66,581.45a96.32,96.32,0,0,0-12.89-2.94A52.31,52.31,0,0,1,46.5,574a50.14,50.14,0,0,1-13.89-9.82A56.55,56.55,0,0,1,48,567.58a53.86,53.86,0,0,1-2.48-13.21l7.73,9.93A24.19,24.19,0,0,1,57,551.38a61.43,61.43,0,0,0,.92,18.82l8.2-16.32a32.89,32.89,0,0,0-2.41,14.61l10.16-11.7c-6.49,7.46-5.31,19.22-14.65,25.91-7.73,5.54-20.64,6-29.49,6.25C34.58,586.25,39.69,583.91,44.66,581.45Z"/><path class="cls-3" d="M5,472.86c-11.59,9.55-.13,35.07,4.86,45.15,1.86,3.76,4.1,8,7.43,10.64,4.51,4.66,10.08,7,16.47,3.18,12.42-7.4,4.1-30.62-.19-40.13C29.53,482.73,17.45,462.62,5,472.86Z"/><path class="cls-2" d="M18.23,539.06c-5.26,1.45-10.75.89-16.06.32A73,73,0,0,0,26,530.77a10.69,10.69,0,0,0,3-2.32,9.7,9.7,0,0,0,1.56-3.36q2.59-8.3,4.38-16.73A70.16,70.16,0,0,1,36.2,526.7c6.62-3,11.75-8.86,13.38-15.34-.05,3.88-.2,8-2.68,11.36-1.82,2.42-4.64,4.05-6.9,6.16a13.09,13.09,0,0,0-3.61,6.43C29.69,534.15,24.82,537.24,18.23,539.06Z"/><path class="cls-2" d="M106.22,646.33q-3.67-3.31-7.2-6.74-7-6.79-13.4-14-3.41-3.83-6.65-7.77a292.48,292.48,0,0,1-23.56-32.91c-3.59-5.91-7-12-10-18.16A167.49,167.49,0,0,1,33.5,535.06c-.24-.89-.47-1.8-.67-2.7-.17-.7-.33-1.4-.49-2.09-.45-2,2.57-3.3,3.42-1.33l.44,1c.38.89.76,1.79,1.14,2.69,3.66,8.55,7.18,17.11,11.09,25.51,2.4,5.2,4.94,10.34,7.72,15.39,1.48,2.68,3,5.33,4.57,8a259.86,259.86,0,0,0,23.17,32.71q4.64,5.61,9.58,10.87,3.62,3.9,7.38,7.61c.5,1.35,1,2.71,1.54,4.06Q104.24,641.58,106.22,646.33Z"/><path class="cls-4" d="M574.69,795.95a27.05,27.05,0,0,1,5.6,3.07,17.86,17.86,0,0,1,3,2.69c6.61,7.49,8.85,27.21,16.74,32.47A60.36,60.36,0,0,1,585,819.86a84.08,84.08,0,0,1,5.45,21.62c-6.75-4.65-8.12-13.31-8.84-20.83q-5.8,13.9-11.62,27.81l1.42-33.07a21.62,21.62,0,0,0-9.64,9.42A56.88,56.88,0,0,1,571,809a70.78,70.78,0,0,1-17.52,3.11,74.89,74.89,0,0,1-12.33-.37c.17-.15.35-.28.54-.42q11.66-4.74,22.88-10.24c.63-.12,1.26-.23,1.9-.32l-.53-.36C568.85,799,571.78,797.5,574.69,795.95Z"/><path id="_Path_2" data-name="&lt;Path&gt;" class="cls-4" d="M532.8,863.32a96.3,96.3,0,0,0-1.27,13.16,52.32,52.32,0,0,1-6.35-14,50.14,50.14,0,0,1-8,15,56.54,56.54,0,0,1,1.41-15.66A53.86,53.86,0,0,1,505.84,866l8.86-8.93a24.19,24.19,0,0,1-13.3-2.13,61.43,61.43,0,0,0,18.55-3.31l-17.24-6a32.89,32.89,0,0,0,14.8.53l-12.9-8.59c8.23,5.48,19.74,2.82,27.57,11.22,6.48,7,8.63,19.7,10,28.46C538.85,872.7,535.88,867.94,532.8,863.32Z"/><path class="cls-5" d="M430.15,916.49c10.95,10.28,34.8-4.34,44.16-10.58,3.49-2.33,7.38-5.09,9.61-8.73,4-5.07,5.64-10.89,1-16.74-8.92-11.37-30.89-.16-39.78,5.31C436.82,890.91,418.41,905.46,430.15,916.49Z"/><path class="cls-4" d="M494.13,894.94c2.11,5,2.26,10.55,2.37,15.89a73,73,0,0,0-11.58-22.55,10.69,10.69,0,0,0-2.69-2.72,9.7,9.7,0,0,0-3.53-1.12q-8.56-1.51-17.16-2.21a70.15,70.15,0,0,1,18-3.52c-3.81-6.18-10.29-10.52-16.92-11.32,3.86-.44,8-.83,11.61,1.21,2.64,1.49,4.61,4.09,7,6.06a13.09,13.09,0,0,0,6.84,2.76C487.79,884.2,491.48,888.63,494.13,894.94Z"/><path class="cls-4" d="M589.3,794a265.58,265.58,0,0,1-24.84,30.67c-22.19,23.56-50.06,46.32-80.86,57.41-1.9.69-3.59-2.13-1.75-3.22,14.13-8.36,28.37-16.2,41.65-25.92a260.18,260.18,0,0,0,36.82-32.7q8.61-9.24,16.17-19.18Q583,797.64,589.3,794Z"/><path class="cls-2" d="M462,825.05a27,27,0,0,1,4.34,4.69,17.86,17.86,0,0,1,2,3.5c3.89,9.2-.24,28.61,5.58,36.11A60.36,60.36,0,0,1,464.19,851a84.07,84.07,0,0,1-1.69,22.23c-4.93-6.55-3.48-15.2-1.78-22.56l-19.84,22.69,11.84-30.91a21.62,21.62,0,0,0-12.14,5.88,56.88,56.88,0,0,1,13.73-12.05,70.79,70.79,0,0,1-17.6-2.61,74.9,74.9,0,0,1-11.57-4.26l.64-.23q12.56-.8,24.95-2.45c.63.08,1.27.18,1.9.3l-.39-.51C455.5,826.08,458.76,825.6,462,825.05Z"/><path id="_Path_3" data-name="&lt;Path&gt;" class="cls-2" d="M400.91,875.65a96.33,96.33,0,0,0-5.38,12.08A52.32,52.32,0,0,1,394,872.41a50.14,50.14,0,0,1-12.32,11.72,56.54,56.54,0,0,1,6.3-14.41,53.86,53.86,0,0,1-13.44-.13l11.23-5.66a24.19,24.19,0,0,1-11.94-6.24,61.42,61.42,0,0,0,18.64,2.75L378,849.24a32.9,32.9,0,0,0,13.87,5.2l-9.51-12.24c6.07,7.81,17.83,8.93,22.58,19.39,3.93,8.66,1.93,21.42.42,30.15C403.67,886.47,402.36,881,400.91,875.65Z"/><path class="cls-3" d="M286.7,893.52c7.12,13.22,34.38,6.92,45.24,4,4-1.1,8.61-2.48,11.88-5.23,5.45-3.52,8.8-8.54,6.3-15.54-4.85-13.61-29.25-10-39.41-7.58C301.13,871.38,279.05,879.34,286.7,893.52Z"/><path class="cls-2" d="M354.2,893.37c.41,5.44-1.21,10.72-2.8,15.82a73,73,0,0,0-3.83-25.06,10.69,10.69,0,0,0-1.68-3.44,9.7,9.7,0,0,0-3-2.19q-7.64-4.15-15.57-7.54a70.15,70.15,0,0,1,18.22,2.38c-1.65-7.07-6.42-13.24-12.46-16.1,3.8.8,7.85,1.76,10.62,4.83,2,2.25,3.08,5.34,4.71,8a13.09,13.09,0,0,0,5.61,4.78C351.6,881.18,353.69,886.55,354.2,893.37Z"/><path class="cls-2" d="M476.48,827.83A265.57,265.57,0,0,1,443.19,849c-28.52,15.31-62.17,28-94.9,28.8-2,0-2.73-3.16-.64-3.61,16.05-3.44,32-6.36,47.72-11.37a260.18,260.18,0,0,0,45.29-19.33q11.1-6,21.41-13.06C466.9,829.67,471.71,828.81,476.48,827.83Z"/><path class="cls-6" d="M773.39,648.5l2.52-.8h0Z"/><path class="cls-6" d="M793.23,639.21a.49.49,0,0,0,0-.07A.51.51,0,0,1,793.23,639.21Z"/><path class="cls-6" d="M732.67,678.2c1,.57,2.94,1.94,4.51,2.74-1.57-.8-3.47-2.17-4.52-2.74Z"/><path class="cls-6" d="M793,639l-.08-.07Z"/><path class="cls-6" d="M788.61,642.59c-.29.15-.55.28-.75.4h0c5,4.14,10.58,9.42,12.48,13.72-1.9-4.29-7.47-9.57-12.48-13.72-.89.52-1.8,2.41-2.73,4,.93-1.64,1.84-3.52,2.73-4C788.06,642.87,788.32,642.73,788.61,642.59Z"/><path class="cls-6" d="M770.06,648.61c-.06.23,0,.39.1.47-.13-.09-.17-.24-.11-.47l0-.17Z"/><path class="cls-6" d="M721.89,611.8c-.25.64.16,2.6.53,5h0C722,614.4,721.64,612.44,721.89,611.8Z"/><path class="cls-6" d="M721.94,611.72l0,0Z"/><path class="cls-6" d="M725,627.8c-.55-1.37-4.26-3.27-5-4.79.74,1.52,4.44,3.41,5,4.78h0c.18.44.39,1.14.63,1.87-.24-.74-.45-1.43-.63-1.87Z"/><path class="cls-6" d="M720.86,669.17h0c-2.85-2.56-5.21-4.4-4.75-5.07-.45.68,1.9,2.52,4.75,5.07v0a4.94,4.94,0,0,1,1.42,2.65A5,5,0,0,0,720.86,669.17Z"/><path class="cls-6" d="M722.76,676.55c0-.37-.06-.76-.08-1.15,0,.39,0,.77.09,1.14.23,2.37,6.89.74,9.44,1.47C729.65,677.3,723,678.92,722.76,676.55Z"/><path class="cls-6" d="M788.73,642.53l.14-.07Z"/><path class="cls-6" d="M791.84,640.9l.12-.08Z"/><path class="cls-6" d="M791.33,641.2l.11-.06Z"/><path class="cls-6" d="M792.32,640.58l0,0Z"/><path class="cls-6" d="M793,640l0-.05Z"/><path class="cls-6" d="M793.19,639.73l0-.06Z"/><path class="cls-6" d="M792.7,640.29l.05,0Z"/><path class="cls-6" d="M793.27,639.46a.54.54,0,0,0,0-.06A.54.54,0,0,1,793.27,639.46Z"/><path class="cls-6" d="M790.81,641.48l0,0Z"/><path class="cls-6" d="M851.85,466.57l-.06.17Z"/><path class="cls-6" d="M852,465.79a1,1,0,0,1,0,.14A1,1,0,0,0,852,465.79Z"/><path class="cls-6" d="M850.64,468.67c-.57.82-1.22,1.65-1.75,2.36C849.41,470.32,850.06,469.48,850.64,468.67Z"/><path class="cls-6" d="M851.57,467.17l-.15.26Z"/><path class="cls-6" d="M848.7,471.26l-.11.15Z"/><path class="cls-6" d="M851.29,467.67l-.19.3Z"/><path class="cls-6" d="M851,468.17l-.23.34Z"/><path class="cls-6" d="M851.4,465.2l-.13,0Z"/><path class="cls-6" d="M838.21,483.09h0a45.29,45.29,0,0,1-4.56,4.16,45.89,45.89,0,0,0,4.56-4.16h0c1.8-1.7,4.65-1.32,7.11-1.31C842.86,481.78,840,481.39,838.21,483.09Z"/><path class="cls-6" d="M851.95,465.61a.63.63,0,0,0,0-.1A.62.62,0,0,1,851.95,465.61Z"/><path class="cls-6" d="M851.66,465.28l.07,0Z"/><path class="cls-6" d="M851.93,466.31c0-.06,0-.11,0-.17S851.95,466.25,851.93,466.31Z"/><path class="cls-7" d="M833.64,487.26a45.29,45.29,0,0,0,4.56-4.16h0c3.87,9.55,10.59,20,15.92,21.4-3.72,2.46-8.05,3.73-11.81,3.06-4.63-.83-8.19-10.62-9.74-20.5a.66.66,0,0,0,.14.32C832.89,487.59,833.2,487.53,833.64,487.26Z"/><path class="cls-7" d="M848.15,472h0c.12-.19.27-.4.45-.64l.11-.15.18-.24c.53-.71,1.18-1.54,1.75-2.36l.11-.15.23-.34.13-.2.19-.3.13-.23.15-.26q.12-.23.21-.44l.06-.17c0-.09.06-.17.09-.25s0-.11,0-.17a1.49,1.49,0,0,0,0-.21,1,1,0,0,0,0-.14.73.73,0,0,0,0-.18.62.62,0,0,0,0-.1v0a.58.58,0,0,0-.17-.16l-.07,0a1,1,0,0,0-.25-.09l-.13,0a2.31,2.31,0,0,0-.43,0h-.05c8.89-.82,18.28-.61,20.61,3.42,3.15,5.45,2.43,13-.61,18.63a14.46,14.46,0,0,0-.09-3.66C869.8,478.16,857.93,474.32,848.15,472Z"/><path class="cls-8" d="M838.21,483.09c1.8-1.7,4.65-1.31,7.1-1.31h.41c2.53-.05,1.12-7.74,2.42-9.74,9.78,2.27,21.65,6.11,22.56,11.51a14.46,14.46,0,0,1,.09,3.66,21.12,21.12,0,0,1-10,15.58,13.43,13.43,0,0,1-5,1.84,4.34,4.34,0,0,1-1.66-.14C848.8,503.06,842.08,492.64,838.21,483.09Z"/><path class="cls-7" d="M716.1,664.08c-.46.67,1.9,2.52,4.75,5.07h0c-9.21,4.61-19.07,12.14-20.07,17.57-2.75-3.52-4.36-7.73-4-11.53.46-4.67,9.92-9,19.64-11.33A.6.6,0,0,0,716.1,664.08Z"/><path class="cls-7" d="M732.66,678.19h0c1,.57,2.94,1.94,4.52,2.74,1.18.6,2.17.89,2.48.28a1.55,1.55,0,0,0,.07-.93c1.52,8.79,2.06,18.18-1.77,20.82-5.18,3.57-12.81,3.46-18.62.87a14.47,14.47,0,0,0,3.64-.37C728.29,700.26,731.17,688.12,732.66,678.19Z"/><path class="cls-8" d="M720.86,669.17a5,5,0,0,1,1.43,2.65,21.6,21.6,0,0,1,.39,3.59c0,.39,0,.78.08,1.15.24,2.37,6.88.75,9.44,1.47a2.21,2.21,0,0,1,.45.18h0c-1.49,9.93-4.38,22.07-9.69,23.41a14.47,14.47,0,0,1-3.64.37A21.12,21.12,0,0,1,703,693.21a13.42,13.42,0,0,1-2.23-4.81,4.33,4.33,0,0,1,0-1.67C701.8,681.31,711.65,673.78,720.86,669.17Z"/><path class="cls-2" d="M793,639a.85.85,0,0,1,.16.16,1.15,1.15,0,0,1,.08.26.54.54,0,0,1,0,.06.64.64,0,0,1-.05.21l0,.06a1.32,1.32,0,0,1-.15.23l0,.05a2.75,2.75,0,0,1-.24.24l-.05,0-.33.26,0,0-.37.24-.12.08-.4.24-.11.06-.47.26,0,0c-.66.35-1.35.68-1.95,1l-.14.07-.12.06c-.29.14-.55.28-.76.4-.89.52-1.79,2.41-2.73,4s-1.9,3-2.89,2.56c-2-.94-4.15-2.54-6.3-1.88h0l-2.52.8c-1.65.52-2.84.84-3.23.58-.13-.09-.17-.24-.1-.47l0-.17,0-.11v0c.08-.26.23-.66.41-1.22l.53-1.49c1.08-3.09,2.81-7.81,4.26-10.87a50.74,50.74,0,0,1-.87-14.88A362.19,362.19,0,0,1,738,665.23c.53,4.92,1.4,12.78,1.75,15.06a1.55,1.55,0,0,1-.06.93c-.31.61-1.3.33-2.48-.28-1.57-.8-3.47-2.17-4.51-2.74h0a2.21,2.21,0,0,0-.45-.18c-2.55-.72-9.21.9-9.44-1.47,0-.37-.06-.75-.09-1.14a21.6,21.6,0,0,0-.39-3.59,4.94,4.94,0,0,0-1.42-2.65v0c-2.85-2.55-5.2-4.39-4.75-5.07a.6.6,0,0,1,.35-.21h.05l.25-.06,1.54-.33,1.73-.37c4.49-.91,12-2.35,15.52-2.42q26.28-28.27,43.16-56.61c-8.68,6-22.09,13.73-38,17.88-2.11.55-4.25,1-6.43,1.45l-.41.07c-2.06,3.13-5,7.58-5.79,9h0c-.33.55-.65.64-.95.45-.58-.39-1.1-1.86-1.54-3.2-.24-.74-.45-1.43-.63-1.87h0c-.56-1.37-4.26-3.26-5-4.78a.9.9,0,0,1,0-.94c1.07-1.59,2.73-3.27,2.44-5.23h0c-.37-2.44-.78-4.4-.53-5a.44.44,0,0,1,0-.08l0,0c.09-.1.23-.12.42,0l.17.08.07,0,1,.51,1.23.64c2.75,1.46,7.08,3.82,9.49,5.49,1-.19,1.91-.4,2.85-.62,2.22-.53,4.4-1.12,6.52-1.8,20.62-6.44,36.51-18.84,41.05-22.62,19.16-36,26.91-71.83,23.07-107.28-3.6-33.12-17-61.66-32.5-84.47q-3.42-5-6.95-9.7-1.09-5.45-2.38-10.84c.73.9,1.45,1.79,2.18,2.72l.12-.1,4.75,5.88,18.39,22.78c1.82-1.79,4.24-3.4,7-3.36,6.31.09,17.18-10.27,17.18-10.27C811.58,412,802,415.91,795.17,417l39.41,48.78c4.78-.13,13.75-.39,16.22-.58h0a2.31,2.31,0,0,1,.43,0l.13,0a1,1,0,0,1,.25.09l.07,0a.58.58,0,0,1,.17.16v0a.63.63,0,0,1,0,.1.73.73,0,0,1,0,.18,1,1,0,0,1,0,.14,1.49,1.49,0,0,1,0,.21c0,.05,0,.11,0,.17s-.05.17-.09.25l-.06.17q-.09.21-.21.44l-.15.26-.13.23-.19.3-.13.2-.23.34-.11.15c-.57.82-1.22,1.65-1.75,2.36l-.18.24-.11.15c-.17.23-.32.45-.45.64h0c-1.3,2,.11,9.69-2.42,9.74h-.41c-2.46,0-5.31-.39-7.11,1.31h0a45.89,45.89,0,0,1-4.56,4.16c-.44.27-.75.33-.92.12a.67.67,0,0,1-.14-.32l0,0c0-.06,0-.19,0-.29-.05-.32-.12-.84-.21-1.53-.06-.51-.14-1.1-.22-1.76a142,142,0,0,1-1.22-14.52l-37.65-46.61a181.6,181.6,0,0,1,19.44,63.2c4,36.44-4,73.24-23.56,110l.25.27c-.1.08-.35.32-.75.65q-2.91,5.44-6.2,10.89A45.77,45.77,0,0,0,780,633c3.78,1.76,10.6,4.91,12.56,5.71h0l.15.08a2.06,2.06,0,0,1,.24.13Z"/><path class="cls-2" d="M722.36,611.62h0Z"/><path class="cls-7" d="M770.16,649.08c.39.26,1.58-.06,3.23-.58l2.53-.8h0c-.69,8.87.48,19.53,4,22.68-3.82.47-7.65-.21-10.3-2.18-3.25-2.43-2.23-11.36.37-19.6C770,648.84,770,649,770.16,649.08Z"/><path class="cls-7" d="M770.11,648.44l0,.17s0,0,0,0l.07-.21v0Z"/><path class="cls-7" d="M800.34,656.7c-1.9-4.29-7.47-9.57-12.48-13.72h0c.2-.12.46-.25.75-.4l.12-.06.14-.07c.59-.3,1.28-.63,1.95-1l0,0,.47-.26.11-.06.4-.24.12-.08.37-.24,0,0,.33-.26.05,0A2.75,2.75,0,0,0,793,640l0-.05a1.32,1.32,0,0,0,.15-.23l0-.06a.64.64,0,0,0,.05-.21.54.54,0,0,0,0-.06.5.5,0,0,0-.05-.19.51.51,0,0,0,0-.07A.85.85,0,0,0,793,639l-.08-.07a2.06,2.06,0,0,0-.24-.13l-.16-.08c7.17,2.79,14.34,6.56,14.58,10.58.33,5.43-3.15,11-7.65,14.18a12.49,12.49,0,0,0,1.34-2.86A5.65,5.65,0,0,0,800.34,656.7Z"/><path class="cls-8" d="M785.76,671.63a11.56,11.56,0,0,1-4.55-.49,3.71,3.71,0,0,1-1.23-.75c-3.56-3.16-4.74-13.81-4-22.68,2.16-.66,4.33.95,6.3,1.88,1,.47,2-.92,2.89-2.56s1.85-3.52,2.73-4c5,4.14,10.58,9.42,12.48,13.72a5.65,5.65,0,0,1,.51,3.88,12.49,12.49,0,0,1-1.34,2.86A18.23,18.23,0,0,1,785.76,671.63Z"/><path class="cls-7" d="M722,611.67l0,0a.44.44,0,0,0,0,.08c-.25.64.15,2.6.53,5h0c-7.57-1.73-16.91-2.08-20.14.57.1-3.36,1.14-6.59,3.18-8.63,2.52-2.5,10.11-.48,16.9,2.83h0C722.19,611.55,722.06,611.57,722,611.67Z"/><path class="cls-7" d="M722.4,611.64h0l.21.11-.08,0-.17-.08Z"/><path class="cls-7" d="M725,627.8h0c.18.44.39,1.14.63,1.87.43,1.34,1,2.81,1.54,3.2.3.2.62.11,1-.44-3.34,5.87-7.54,11.6-11.05,11.3-4.72-.4-9-4.11-11.22-8.38a11,11,0,0,0,2.23,1.46C711.78,638.59,719.31,632.88,725,627.8Z"/><path class="cls-8" d="M722.41,616.85c.29,2-1.38,3.63-2.44,5.23a.9.9,0,0,0,0,.94c.74,1.52,4.44,3.42,5,4.79-5.65,5.08-13.18,10.78-16.93,9a11,11,0,0,1-2.23-1.46,16,16,0,0,1-5.4-13.05,10.19,10.19,0,0,1,1-3.88,3.34,3.34,0,0,1,.85-1C705.51,614.77,714.84,615.12,722.41,616.85Z"/><path class="cls-2" d="M759.91,541.72A350.78,350.78,0,0,0,473.7,136.55q-7.82-1.33-15.64-2.34-7.63-1-15.25-1.6a349.15,349.15,0,0,0-47.77-.73q-10.09.52-20.1,1.65a347,347,0,0,0-46.23,8.35q-7.83,2-15.58,4.31a351.3,351.3,0,0,0-101.28,49.55A361.17,361.17,0,0,0,182.36,219c-4.33,3.81-8.56,7.72-12.68,11.7A346.69,346.69,0,0,0,88.19,352.56q-4.84,12.25-8.79,24.94a353.47,353.47,0,0,0-10.87,45.25A350.75,350.75,0,0,0,354.72,827.93q5.41.93,10.82,1.69a351.31,351.31,0,0,0,87.21,1.44q6.1-.66,12.16-1.55A349.32,349.32,0,0,0,616.6,768.75a354.19,354.19,0,0,0,42.54-35.3c1.6-1.55,3.17-3.1,4.74-4.68A348.3,348.3,0,0,0,759.91,541.72ZM663.28,722.2c-1.47,1.52-2.94,3-4.43,4.5a349,349,0,0,1-45.15,37.94,344,344,0,0,1-160.15,61.25q-5.52.64-11,1.08a347.42,347.42,0,0,1-76.27-2.32q-5.33-.75-10.65-1.66A345.77,345.77,0,0,1,73.48,423.6q2.93-17,7.44-33.39c.85-3.14,1.74-6.24,2.69-9.33a342.29,342.29,0,0,1,102.7-158.69q5.35-4.66,10.91-9.13,8.53-6.85,17.52-13.21a346.79,346.79,0,0,1,88.6-45.26q6.74-2.29,13.57-4.3a341.88,341.88,0,0,1,62.16-12.15q10.81-1.08,21.71-1.49a343.68,343.68,0,0,1,43.3,1.12q8.47.74,16.93,1.91c3.95.53,7.91,1.15,11.85,1.83A345.91,345.91,0,0,1,663.28,722.2Z"/><path class="cls-4" d="M721.86,280.91A348.36,348.36,0,0,0,505.46,139.6c-3.52-.72-7.07-1.39-10.62-2-1.6-.27-3.2-.54-4.8-.79a351.83,351.83,0,0,0-336,136.64q-7.88,10.54-14.91,21.63A350,350,0,0,0,89.66,423.8q-2.51,14.6-3.78,29.18-1.08,12.08-1.31,24.11c0,1.35,0,2.72-.06,4.08,0,3.24,0,6.49.06,9.73A351,351,0,0,0,375.86,829c1.95.33,3.88.65,5.82,1q6.62,1,13.22,1.81a347.68,347.68,0,0,0,173.24-23.65c1.63-.67,3.25-1.35,4.87-2,2.68-1.15,5.32-2.32,8-3.53,1.34-.61,2.66-1.23,4-1.86q12.85-6.1,25.31-13.28c3.79-2.19,7.54-4.46,11.28-6.8q8.2-5.14,16.18-10.78a350.4,350.4,0,0,0,85-85.07q2.28-3.2,4.44-6.46a343.77,343.77,0,0,0,26.28-46.81h0c.58-1.23,1.14-2.47,1.7-3.69.07-.18.16-.36.23-.54,1.65-3.68,3.24-7.4,4.75-11.15h0c.08-.17.14-.35.22-.53q2.46-6.06,4.69-12.24c.11-.27.2-.52.28-.78A353.84,353.84,0,0,0,781,542.78,348.52,348.52,0,0,0,721.86,280.91Zm54.22,261a348.52,348.52,0,0,1-16,60.3q-3.32,9.16-7.16,18.07l-1.38,3.18c-.22.49-.44,1-.66,1.45A340.7,340.7,0,0,1,726,670.79c-1.32,2.06-2.67,4.1-4,6.13q-1.71,2.53-3.46,5-3.64,5.17-7.45,10.19-7.64,10.05-16,19.56c-1.87,2.12-3.76,4.19-5.67,6.26q-4.31,4.65-8.81,9.15-3,3-6.07,5.94c-2.06,2-4.14,3.88-6.24,5.8s-4.23,3.8-6.39,5.66-4.33,3.7-6.54,5.52q-9.93,8.16-20.54,15.66c-2.79,2-5.62,3.9-8.46,5.79-1.76,1.17-3.53,2.32-5.3,3.46-3.48,2.23-7,4.37-10.54,6.46q-11,6.48-22.33,12.09-3.29,1.65-6.62,3.21c-1.59.76-3.21,1.49-4.81,2.21s-3.39,1.52-5.11,2.25h0q-3.15,1.38-6.34,2.66c-1.65.69-3.31,1.35-5,2s-3.3,1.27-5,1.89a340.72,340.72,0,0,1-39.74,12.08q-3.38.81-6.77,1.55-6.4,1.38-12.86,2.53-5.48,1-11,1.78-16,2.29-32.24,3.09c-2.71.14-5.42.23-8.13.3a347.24,347.24,0,0,1-60.51-3.8c-2.47-.37-4.93-.75-7.41-1.19-1.44-.24-2.89-.51-4.33-.77A343.44,343.44,0,0,1,152.95,682.76q-2.4-3.4-4.71-6.83c-1.54-2.3-3.06-4.6-4.54-6.93-2.23-3.48-4.37-7-6.47-10.53-.7-1.19-1.38-2.36-2.07-3.56-1.37-2.38-2.69-4.75-4-7.16q-3.92-7.2-7.47-14.55-4.44-9.18-8.31-18.56-2.32-5.64-4.45-11.33-1.41-3.8-2.74-7.62T105.66,588q-3.66-11.58-6.53-23.35c-.63-2.62-1.23-5.25-1.81-7.88Q96,550.87,95,544.91c-.71-4-1.37-8-1.94-12q-2.29-16-3.09-32.24c-.14-2.7-.23-5.41-.3-8.13-.12-4.86-.14-9.74,0-14.63,0-3.12.14-6.22.29-9.33,0-.47,0-1,.06-1.44q.58-11.77,1.95-23.59,1.1-9.45,2.73-18.92c.26-1.54.53-3.07.83-4.6.46-2.53,1-5.05,1.48-7.56.22-1.05.44-2.09.68-3.13.35-1.65.72-3.32,1.12-5,.28-1.24.57-2.46.87-3.68,0-.11.05-.22.08-.33.24-1,.48-2,.73-2.92.3-1.14.58-2.27.89-3.42.22-.84.45-1.7.69-2.53.09-.39.2-.78.31-1.17l.68-2.45c.23-.8.46-1.59.7-2.4.14-.49.28-1,.43-1.47.26-.85.51-1.71.78-2.56.34-1.15.69-2.28,1.07-3.42.25-.82.51-1.63.77-2.45l.53-1.58c.28-.86.57-1.73.87-2.61.1-.31.2-.65.33-1,.41-1.21.82-2.4,1.25-3.6l.06-.16c.41-1.15.82-2.3,1.25-3.43.1-.29.2-.56.31-.84.33-.92.67-1.82,1-2.73.15-.4.29-.78.45-1.18.47-1.22.94-2.45,1.43-3.67s1-2.62,1.58-3.9,1.06-2.55,1.61-3.81q1.67-3.94,3.44-7.81c.57-1.25,1.14-2.5,1.72-3.74l0-.08c.6-1.27,1.2-2.54,1.83-3.8.73-1.52,1.48-3,2.25-4.54.5-1,1-2,1.51-3l1.56-3c.54-1,1.07-2,1.63-3,.81-1.51,1.63-3,2.46-4.48.43-.76.87-1.55,1.32-2.32.22-.36.42-.74.64-1.09.58-1,1.19-2.08,1.8-3.11s1.36-2.31,2.08-3.45l.91-1.52c.51-.84,1-1.67,1.56-2.5q6.84-11,14.52-21.36c.7-1,1.42-1.91,2.13-2.86l.24-.32q1.25-1.67,2.53-3.3c.57-.74,1.13-1.48,1.72-2.2s1-1.23,1.45-1.84c.74-.93,1.49-1.86,2.27-2.79s1.69-2.08,2.56-3.11,1.55-1.85,2.32-2.75c1.07-1.25,2.14-2.49,3.23-3.72.82-.93,1.64-1.87,2.48-2.79q3.73-4.16,7.6-8.2c.63-.67,1.27-1.32,1.91-2,.86-.88,1.71-1.77,2.58-2.62,1-1,2-2,3-3,2-2,4.1-4,6.2-5.94,1-1,2.09-1.94,3.16-2.9.87-.79,1.73-1.58,2.62-2.36q10-8.9,20.71-17.08,1.71-1.32,3.44-2.59c2.31-1.72,4.63-3.42,7-5.07A346.39,346.39,0,0,1,634,200.09q5.15,3.64,10.19,7.45,10.05,7.64,19.55,16c2.12,1.85,4.21,3.75,6.27,5.66q4.65,4.31,9.15,8.81,3,3,5.93,6.07c2,2.06,3.89,4.15,5.81,6.24s3.8,4.23,5.66,6.39,3.7,4.33,5.51,6.54q8.17,9.93,15.66,20.54c1.61,2.27,3.18,4.54,4.71,6.84s3.06,4.6,4.55,6.92c2.23,3.48,4.37,7,6.46,10.54l2.07,3.55q2,3.57,4,7.16,3.92,7.22,7.47,14.55,4.44,9.18,8.31,18.58c1.55,3.74,3,7.52,4.45,11.32q1.41,3.8,2.74,7.64c.88,2.54,1.73,5.1,2.54,7.68q3.68,11.55,6.54,23.34c.62,2.61,1.24,5.24,1.81,7.87q1.28,5.91,2.36,11.89c.71,4,1.37,8,1.94,12q2.29,16,3.08,32.24.2,4.07.3,8.13A348.84,348.84,0,0,1,776.08,541.93Z"/><path class="cls-2" d="M505.46,139.6c-3.52-.72-7.07-1.39-10.62-2-1.6-.27-3.2-.54-4.8-.79a152,152,0,0,0-43.45-16.56l-1.05-.23c-1.12-.23-2.25-.45-3.37-.64a157.5,157.5,0,0,0-67.63,2.49c-1.91.5-3.8,1-5.68,1.59a156.14,156.14,0,0,0-40.14,18.43q-6.08,3.91-11.8,8.42c-4.54,1.33-9.07,2.77-13.56,4.3,3.14-2.94,6.41-5.74,9.78-8.41a163.3,163.3,0,0,1,22.64-15.09q2.82-1.56,5.71-3a156.27,156.27,0,0,1,25.06-10,162.33,162.33,0,0,1,27.55-5.73q4.42-.53,8.88-.81a163.5,163.5,0,0,1,76.1,13.34c2.2,1,4.38,2,6.54,3.05h0a158.31,158.31,0,0,1,18.47,10.73Z"/><path class="cls-2" d="M527.32,107.79a63.34,63.34,0,0,1-50.48,20.15,47.82,47.82,0,0,1,22.07-18.23A47.3,47.3,0,0,1,527.32,107.79Z"/><path class="cls-2" d="M426.8,74.33a63.34,63.34,0,0,1-33.23,43,47.82,47.82,0,0,1,9.74-26.92A47.3,47.3,0,0,1,426.8,74.33Z"/><path class="cls-2" d="M352.24,82a63.34,63.34,0,0,1-15.59,52.07,47.82,47.82,0,0,1-.56-28.62A47.3,47.3,0,0,1,352.24,82Z"/><path class="cls-2" d="M367.57,120.35a63.34,63.34,0,0,1,44.75,30.84,47.82,47.82,0,0,1-27.41-8.26A47.3,47.3,0,0,1,367.57,120.35Z"/><path class="cls-2" d="M442.43,116.8a63.34,63.34,0,0,1,24.79,48.37A47.82,47.82,0,0,1,447,144.89,47.3,47.3,0,0,1,442.43,116.8Z"/><path class="cls-6" d="M348.49,201.16h0Z"/><path class="cls-6" d="M349,201.34l.1.1Z"/><path class="cls-6" d="M349.84,208.57c-.08-1,0-2.74-.12-4.3.09,1.56,0,3.32.11,4.3s1.42,2.82,2.6,4.5c-1.18-1.68-2.5-3.4-2.59-4.5Z"/><path class="cls-6" d="M348.21,201.26l-.13.08Z"/><path class="cls-6" d="M348.88,201.24l-.13-.05Z"/><path class="cls-6" d="M347.27,229.92a.51.51,0,0,1-.46-.18l0,0A.49.49,0,0,0,347.27,229.92Z"/><path class="cls-6" d="M128.12,225l.26.37c.09.11.18.21.27.32C128.47,225.43,128.29,225.2,128.12,225Z"/><path class="cls-6" d="M353.86,217.64c.78-.63.31-1.84-.53-3.21.84,1.37,1.31,2.58.52,3.21-1.46,1.18-3.36,2.3-4.38,3.86C350.5,219.95,352.4,218.83,353.86,217.64Z"/><path class="cls-6" d="M109.34,226.05s0,0,0,0Z"/><path class="cls-6" d="M137.63,229.21a.56.56,0,0,1,.28.39A.56.56,0,0,0,137.63,229.21Z"/><path class="cls-6" d="M349.31,201.81l-.07-.15Z"/><path class="cls-6" d="M349.71,204.18c0-.14,0-.27,0-.4C349.69,203.91,349.7,204,349.71,204.18Z"/><path class="cls-6" d="M314.75,237.25h0Z"/><path class="cls-6" d="M315.32,237.47a.42.42,0,0,1,.07.11A.42.42,0,0,0,315.32,237.47Z"/><path class="cls-6" d="M312.42,242.33h0c.73-1,2.8-3.26,3-4.39-.19,1.13-2.27,3.35-3,4.4s-.49,4-.9,5.84C311.93,246.37,311.73,243.33,312.42,242.33Z"/><path class="cls-6" d="M304.75,250.4h0a4.17,4.17,0,0,1,2.76-.91h-.1a4.1,4.1,0,0,0-2.67.92c-1.83,1.65-3.25,3.08-3.9,3.19C301.5,253.49,302.91,252.06,304.75,250.4Z"/><path class="cls-6" d="M315.24,237.38l-.11,0Z"/><path class="cls-6" d="M349.66,203.53c0-.11,0-.22,0-.33C349.64,203.31,349.65,203.42,349.66,203.53Z"/><path class="cls-6" d="M349.59,202.93c0-.1,0-.19,0-.28C349.56,202.73,349.57,202.83,349.59,202.93Z"/><path class="cls-6" d="M349.48,202.37c0-.07,0-.15-.05-.22S349.46,202.3,349.48,202.37Z"/><path class="cls-6" d="M309.09,249.52l1.06,0Z"/><path class="cls-6" d="M109.44,226.4l0,0Z"/><path class="cls-6" d="M298.3,182.32c.54.15.9.41,1,.88s.13,1.19.19,1.81c-.06-.62-.11-1.24-.19-1.82S298.83,182.47,298.3,182.32Z"/><path class="cls-6" d="M112.34,225.09h0Z"/><path class="cls-6" d="M111.71,225.1h0Z"/><path class="cls-6" d="M111.11,225.13l-.19,0Z"/><path class="cls-6" d="M110.56,225.19l-.15,0Z"/><path class="cls-6" d="M302.68,194.42l1.79-.46.3-.08Z"/><path class="cls-6" d="M315.41,237.68a.73.73,0,0,1,0,.19A.72.72,0,0,0,315.41,237.68Z"/><path class="cls-6" d="M290.76,182.15c-1.18-.58-3.6-2.23-5-2.57,1.43.34,3.85,2,5,2.57h0Z"/><path class="cls-6" d="M109.42,225.73l0,0Z"/><path class="cls-6" d="M110,225.32l-.05,0Z"/><path class="cls-6" d="M301.15,189.44h0a4.72,4.72,0,0,1-1.49-2.91v.06a4.67,4.67,0,0,0,1.48,2.86c2.22,1.82,4.08,3.2,4.26,3.9C305.24,192.64,303.37,191.27,301.15,189.44Z"/><path class="cls-6" d="M305.38,193.62a.54.54,0,0,1-.3.18h0A.54.54,0,0,0,305.38,193.62Z"/><path class="cls-4" d="M180.43,231.29c-17.07,24.05-31.5,48.71-41.09,72.9,0,0,0,.07,0,.1q4.79-7.56,10-14.88a58.32,58.32,0,0,0,6.4.6c3.32.29,6.78.57,10.24-.56,3-1,5.8-3,8.46-5L195,269.34l-15.18,4.72a91.07,91.07,0,0,1-9.3,2.54c-2.28.45-4.57.71-6.84,1.37a37,37,0,0,0-9.38,4.51l.79-1.08a418.55,418.55,0,0,1,34.27-54.31l-.1,0Q184.77,229.09,180.43,231.29Z"/><path class="cls-9" d="M266.76,82.13h0c2.06,3.14,3.8,5.37,2.43,5.32-.33,0-1.53-.06-3.17-.16,9.41.7,20.31-.67,21.89-4.9,1.14-3,.73-6.87-.76-10.37C285.13,76.27,275.36,80.34,266.76,82.13Z"/><path class="cls-9" d="M259,72.09c3.4-7.86,8.44-17.24,13.11-17.18a12.34,12.34,0,0,1,3,.44c-4.23-3.37-10.45-5.11-15.48-3.3-3.74,1.34-5.35,9.2-6,16.78C253.93,65.91,257.52,70.69,259,72.09Z"/><path class="cls-3" d="M259,72.09h0c1.48,1.4,8.15,1.38,7.81,3.52s-1.27,4.65,0,6.52c8.6-1.79,18.37-5.85,20.39-10.1a3.7,3.7,0,0,0,.37-1.38,11.46,11.46,0,0,0-.79-4.46,18,18,0,0,0-11.61-10.85,12.34,12.34,0,0,0-3-.44C267.44,54.85,262.4,64.23,259,72.09Z"/><path class="cls-9" d="M137.11,230.55l-1.81,1.57Q136.21,231.35,137.11,230.55Z"/><path class="cls-9" d="M131.39,227.52h0c3,.69,5.42,1.13,6.25,1.69a.56.56,0,0,1,.28.39.5.5,0,0,1-.18.38c7.3-6.65,13.41-14.89,11.59-19.16-1.48-3.47-4.89-6.35-8.94-8.08C142.1,207.91,137.16,219.14,131.39,227.52Z"/><path class="cls-9" d="M109.44,226.4a1,1,0,0,1-.09-.35v0a.67.67,0,0,1,0-.1.54.54,0,0,1,.06-.16l0,0a1,1,0,0,1,.56-.4l.05,0,.38-.1.15,0,.36,0,.19,0,.4,0h.82c1.62,0,3.48.23,4.51.23-3.44-9.31-6.72-21.2-2.76-24.89a14.3,14.3,0,0,1,2.88-2c-6.24.56-12.85,4.08-15.62,9.62-2.06,4.12,2.87,12,8.38,18.87a2.32,2.32,0,0,1-.26-.42Z"/><path class="cls-3" d="M114.08,200.43c-4,3.69-.68,15.58,2.76,24.89h0c2.35,0,7.93-5.36,9.37-3.3.62.92,1.23,2,1.91,2.94.17.24.35.46.53.68a5.16,5.16,0,0,0,2.73,1.87c5.77-8.38,10.71-19.6,9-24.78a4.29,4.29,0,0,0-.79-1.45,13.27,13.27,0,0,0-4.22-3.11,20.9,20.9,0,0,0-18.41.2A14.3,14.3,0,0,0,114.08,200.43Z"/><path class="cls-9" d="M346.28,229.23l-2.11-2.09C344.85,227.85,345.56,228.54,346.28,229.23Z"/><path class="cls-9" d="M348.8,223.24c-.54,3.62-.78,6.5-1.53,6.67a.49.49,0,0,1-.43-.16c7.21,6.75,15.92,12.2,20,10,3.34-1.75,5.94-5.38,7.35-9.55C369.19,232.37,357.61,228.33,348.8,223.24Z"/><path class="cls-9" d="M346.79,229.72l-.46-.44,0,0,.5.49.05,0,0,0Z"/><path class="cls-9" d="M348.08,201.34l.13-.08a1,1,0,0,1,.28-.1h.19l.07,0,.13.05.12.1.1.1a1.45,1.45,0,0,1,.13.22l.07.15a3.08,3.08,0,0,1,.12.34c0,.07,0,.15.05.22s0,.18.06.27,0,.19,0,.28l0,.27c0,.11,0,.22,0,.33l0,.25c0,.13,0,.26,0,.4v.1c.09,1.56,0,3.32.12,4.3,9-4.17,20.6-8.38,24.59-4.73a14.3,14.3,0,0,1,2.27,2.71c-1.05-6.18-5.09-12.48-10.83-14.81-4.27-1.73-11.72,3.82-18.15,9.86l.1-.08Z"/><path class="cls-3" d="M374.43,203.84c-4-3.65-15.59.56-24.59,4.73h0c.09,1.1,1.42,2.82,2.59,4.5.32.46.63.92.91,1.36.84,1.37,1.31,2.58.53,3.21-1.46,1.19-3.37,2.3-4.39,3.86a4.3,4.3,0,0,0-.68,1.73h0c8.81,5.09,20.39,9.12,25.42,7a4.28,4.28,0,0,0,1.39-.9,13.28,13.28,0,0,0,2.76-4.46,20.9,20.9,0,0,0-1.66-18.34A14.3,14.3,0,0,0,374.43,203.84Z"/><path class="cls-2" d="M300.46,253.21l-.06-.52v0c0,.26,0,.46.06.56a.75.75,0,0,0,0,.1v-.1Z"/><path class="cls-4" d="M185.07,223.71a167.8,167.8,0,0,0-37.81,23.58,179.34,179.34,0,0,0-41.59,50.33l18-56.34c3.16-2.07,8.13-6.18,11.24-8.83l.39-.34,1.81-1.57.58-.5.05-.06a.5.5,0,0,0,.18-.38.56.56,0,0,0-.28-.39c-.82-.56-3.29-1-6.25-1.69h0a5.16,5.16,0,0,1-2.73-1.87c-.09-.11-.18-.21-.27-.32l-.26-.37c-.68-1-1.29-2-1.91-2.94-1.43-2.06-7,3.28-9.37,3.3h0c-1,0-2.89-.21-4.51-.23h-.82l-.4,0-.19,0-.36,0-.15,0-.38.1-.05,0a1,1,0,0,0-.56.4l0,0a.54.54,0,0,0-.06.16.67.67,0,0,0,0,.1s0,0,0,0a1,1,0,0,0,.09.35l0,0a2.32,2.32,0,0,0,.26.42h0c.76,1,2.39,3.26,4.2,5.81S117.66,238,119,240l-18.85,59c-4.56-5-13-10.83-26.21-7,0,0,14.47,3.34,17.83,8.59,1.48,2.33,4.12,3.45,6.6,4l-11.07,34.7.12,0A267.86,267.86,0,0,0,76,391.58q4.15-13.43,9.31-26.4c7.41-33.44,24.73-80.91,65-114.2a161.38,161.38,0,0,1,21.28-14.88q4.31-2.53,8.79-4.8,4.33-2.2,8.83-4.16l.1,0q28-12.23,62.11-15.4c6.42,1.94,30.28,10,48.08,28-.07,2.86.32,7.67.62,10.73.08.85.15,1.57.21,2.07l0,.18c0,.19,0,.38.07.57s.17.36.37.33c.66-.11,2.07-1.54,3.9-3.19a4.1,4.1,0,0,1,2.67-.92h.1c.52,0,1.05,0,1.58,0l1.06,0h.25c.6,0,.92-.57,1.11-1.39.41-1.81.21-4.84.9-5.84s2.8-3.27,3-4.4v-.06a.73.73,0,0,0,0-.19.53.53,0,0,0,0-.1.76.76,0,0,0-.15-.2l-.11,0a.74.74,0,0,0-.18-.07h-.41c-.8,0-2.52.06-4.49.08s-4.21,0-6.06,0c-13.33-14-29.44-22.19-40.09-26.5q32.43-1.42,69.89,4.87c2,2.87,7.17,8.22,10.39,11.43l2.15,2.14.46.44,0,0a.51.51,0,0,0,.46.18c.74-.17,1-3.05,1.53-6.67h0a4.3,4.3,0,0,1,.68-1.73c1-1.56,2.92-2.68,4.38-3.86.78-.64.32-1.84-.52-3.21-.27-.44-.58-.9-.91-1.36-1.18-1.68-2.5-3.39-2.6-4.5s0-2.74-.11-4.3v-.1c0-.14,0-.27,0-.4l0-.25c0-.11,0-.22,0-.33l0-.27c0-.1,0-.19,0-.28s0-.18-.06-.27,0-.15-.05-.22a3.08,3.08,0,0,0-.12-.34l-.07-.15a1.45,1.45,0,0,0-.13-.22l-.1-.1-.12-.1-.13-.05-.07,0h-.19a1,1,0,0,0-.28.1l-.13.08-.26.19-.1.08c-.84.76-2.77,2.4-5,4.22s-4.63,3.85-6.52,5.41A360.39,360.39,0,0,0,279,205.77,50.38,50.38,0,0,0,290.76,197c3.28-.49,8.07-1.61,11.21-2.38l.25-.06-.25.06.72-.18,2.09-.54.31-.08a.54.54,0,0,0,.3-.18.32.32,0,0,0,0-.27c-.17-.7-2-2.08-4.26-3.9a4.67,4.67,0,0,1-1.48-2.86v-.06c-.09-.49-.15-1-.2-1.51s-.11-1.23-.19-1.81-.43-.74-1-.88c-1.92-.53-6.11.52-7.54-.18h0c-1.17-.57-3.6-2.23-5-2.57-.79-.19-1.27,0-1.07,1v0s0,0,0,0c.21,1,.59,3.38,1,6s.83,5.47,1.14,7.5A45.34,45.34,0,0,1,264.31,206q-34.59,1.44-63.5,11.44c-2,.68-3.91,1.4-5.84,2.13q-4.4,1.69-8.66,3.58Z"/><path class="cls-9" d="M301.15,189.44h0c2.22,1.83,4.09,3.2,4.26,3.91a.32.32,0,0,1,0,.27.54.54,0,0,1-.28.17c8.21-2.33,16.13-6.35,16.37-10.35.19-3.25-1.33-6.78-3.79-9.68C317,178.41,308.85,185.19,301.15,189.44Z"/><path class="cls-9" d="M302,194.6l.25-.06c.75-.18,1.5-.37,2.26-.58l-1.79.46Z"/><path class="cls-9" d="M304.77,193.88l-.3.08.58-.15.05,0h0Z"/><path class="cls-9" d="M285.73,179.57c1.43.34,3.85,2,5,2.57.93-8.51,3-19,7.47-20.29a12.37,12.37,0,0,1,3-.48c-5-2-11.51-1.79-15.79,1.42-3.18,2.38-2.4,10.34-.81,17.77v0C284.45,179.59,284.94,179.39,285.73,179.57Z"/><path class="cls-3" d="M290.76,182.15h0c1.43.7,5.63-.35,7.54.18.54.15.9.41,1,.88s.13,1.2.19,1.82.11,1,.2,1.51a4.72,4.72,0,0,0,1.49,2.91c7.7-4.25,15.85-11,16.52-15.68a3.69,3.69,0,0,0,0-1.43,11.44,11.44,0,0,0-2.07-4,18,18,0,0,0-14.31-6.93,12.37,12.37,0,0,0-3,.48C293.74,163.18,291.69,173.63,290.76,182.15Z"/><path class="cls-9" d="M304.75,250.4h0c-1.84,1.66-3.26,3.09-3.91,3.19-.2,0-.33-.07-.37-.33v.05c1,7.4,3.43,14.74,6.86,15.46a12.6,12.6,0,0,0,8.89-2C312.27,265.55,307.45,257.61,304.75,250.4Z"/><path class="cls-9" d="M300.47,253.26c0-.19,0-.38-.07-.57l.06.52Z"/><path class="cls-9" d="M300.38,252.52c-.05-.5-.13-1.22-.21-2.07.06.73.14,1.47.22,2.21v0Z"/><path class="cls-9" d="M314.75,237.25H315a.74.74,0,0,1,.18.07l.11,0a.76.76,0,0,1,.15.2.53.53,0,0,1,0,.1.72.72,0,0,1,0,.19v.06c-.18,1.13-2.26,3.35-3,4.39,7.27,1.9,16.07,5,16.64,9.08a10.82,10.82,0,0,1,0,2.67c2.36-4.12,3-9.74.8-13.86-1.66-3.06-8.68-3.41-15.34-3h.19Z"/><path class="cls-3" d="M312.42,242.33h0c-.69,1-.49,4-.91,5.84-.19.83-.51,1.4-1.11,1.39h-.25l-1.06,0c-.53,0-1.06,0-1.58,0a4.17,4.17,0,0,0-2.76.91c2.7,7.22,7.52,15.15,11.47,16.33a3.24,3.24,0,0,0,1.24.14,10.05,10.05,0,0,0,3.76-1.27,15.82,15.82,0,0,0,7.86-11.51,10.82,10.82,0,0,0,0-2.67C328.49,247.35,319.69,244.23,312.42,242.33Z"/><path class="cls-9" d="M416.22,34.11C412.51,39.65,398,43.3,385.52,44h0c2.23,4.84,4.2,8.33,2.29,8-.46-.08-2.13-.41-4.41-.88,13,3,28.61,3.32,31.72-2.28C417.36,44.78,417.59,39.33,416.22,34.11Z"/><path class="cls-9" d="M376.74,28.3C383.15,18,392.19,5.9,398.72,7a17.5,17.5,0,0,1,4.18,1.26c-5.22-5.62-13.61-9.37-21-7.89-5.53,1.1-9.43,11.77-12,22.27C370.93,18.58,375,26,376.74,28.3Z"/><path class="cls-3" d="M376.74,28.3h0c1.78,2.27,11.14,3.65,10.21,6.58s-2.75,6.25-1.43,9.13c12.43-.71,27-4.36,30.7-9.89a5.24,5.24,0,0,0,.81-1.85,16.24,16.24,0,0,0-.17-6.41c-1.43-7.19-7-14.58-14-17.63A17.5,17.5,0,0,0,398.72,7C392.19,5.9,383.15,18,376.74,28.3Z"/><path class="cls-4" d="M385.52,44h0c-1.33-2.88.49-6.2,1.43-9.13s-8.43-4.31-10.21-6.58h0c-1.78-2.27-5.8-9.72-6.84-5.71h0c-1,4-6.76,22.34-6.76,22.34s0,.29.18.45c-4.71,3.76-11.12,9-18.83,15.39a17.29,17.29,0,0,1,3.11,3.67c8.87-7.41,16-13.16,20.8-17,4.46,1.33,10.77,2.73,15,3.61,2.27.47,4,.8,4.41.88C389.73,52.34,387.76,48.85,385.52,44Z"/><path class="cls-9" d="M369.69,85.21h0c-1.32,3.71-2.09,6.57-2.91,5.39-.2-.28-.91-1.32-1.86-2.74,5.36,8.29,13.38,16.53,17.91,15.18,3.27-1,6.2-3.73,8.18-7.19C386.18,96.86,376.61,91.26,369.69,85.21Z"/><path class="cls-9" d="M373.17,72.38c8.71-2.12,19.73-3.84,22.63.1a12.92,12.92,0,0,1,1.54,2.8c.14-5.66-2.34-12-7-15-3.49-2.28-11.06,1.34-17.82,5.58h0C375.13,64.25,373.4,70.27,373.17,72.38Z"/><path class="cls-3" d="M373.17,72.38h0c-.23,2.11,4,7.68,2,8.75s-4.68,1.87-5.47,4.08c6.93,6,16.49,11.64,21.31,10.64a3.87,3.87,0,0,0,1.39-.56,12,12,0,0,0,3.22-3.47,18.88,18.88,0,0,0,1.73-16.55,12.92,12.92,0,0,0-1.54-2.8C392.9,68.54,381.88,70.26,373.17,72.38Z"/><path class="cls-4" d="M358.63,77.79c1.65,3,4.42,7.3,6.28,10.07,1,1.42,1.67,2.46,1.86,2.74.83,1.18,1.59-1.68,2.91-5.39h0c.79-2.21,3.46-3,5.47-4.08s-2.22-6.63-2-8.75h0c.23-2.11,2-8.13-.66-6.55h0c-2,1.19-9.41,5.22-13.06,7.19a47.25,47.25,0,0,0-10.33-2.12,12.64,12.64,0,0,1-3.26,4.55A39.4,39.4,0,0,1,358.63,77.79Z"/><path class="cls-9" d="M344.49,60.77c-.36-.33-.73-.64-1.12-.94.32,4.91-6.55,13.61-13.5,19.63h0c3.49,1.82,6.22,3,4.94,3.63-.3.16-1.43.72-3,1.47a53.61,53.61,0,0,0,14-9.1,12.64,12.64,0,0,0,3.26-4.55,4.17,4.17,0,0,0,.24-2,12,12,0,0,0-1.75-4.49A17.29,17.29,0,0,0,344.49,60.77Z"/><path class="cls-9" d="M317.65,74.23c-.89-8.92-1.06-20.07,3.24-22.4a12.92,12.92,0,0,1,3-1.14c-5.59-.93-12.16.65-15.84,4.86-2.74,3.14-.2,11.14,3,18.43h0C309.87,71.16,315.59,73.71,317.65,74.23Z"/><path class="cls-3" d="M317.65,74.23h0c2.06.53,8.16-2.89,8.94-.75s1.21,4.9,3.28,6c7-6,13.82-14.71,13.5-19.63a3.87,3.87,0,0,0-.36-1.45,12,12,0,0,0-3-3.68,18.88,18.88,0,0,0-16.15-4,12.92,12.92,0,0,0-3,1.14C316.59,54.16,316.76,65.31,317.65,74.23Z"/><path class="cls-4" d="M317.23,95.84a6.7,6.7,0,0,0-4.44-1.2l4.87-4.36c2,0,9.78-3.59,14.17-5.72,1.54-.75,2.67-1.31,3-1.47,1.28-.65-1.45-1.81-4.94-3.63-2.07-1.08-2.51-3.85-3.28-6s-6.88,1.28-8.94.75-7.78-3.07-6.57-.24c.75,1.77,2.94,7.59,4.49,11.72.35.93-12.3,11.07-13.6,12.27q-7.88,7.21-15.63,14.55c-36.08,34.19-70.47,70.57-100,110.63q4.26-1.9,8.66-3.58a759.78,759.78,0,0,1,52.34-61.26c4.48,2.46,18.38.26,21.14-.81a43.83,43.83,0,0,0,4.42-2.08A212.27,212.27,0,0,0,300.74,138c-5.36,1.41-9.95,4.27-15,6.44-3.38,1.44-6.91,1.76-10.52,2.48-2.84.57-13.6,2.14-21.25,4.42,18.83-19.56,37.63-37.49,54.62-52.91.63.71,2,1.37,4.36,1.82a24.91,24.91,0,0,0,18.91-4.14A12.94,12.94,0,0,1,317.23,95.84Z"/><path class="cls-4" d="M266.76,82.13c-1.23-1.87-.3-4.38,0-6.52s-6.33-2.13-7.81-3.52-5.06-6.18-5.37-3.27-1.23,5.94-1.55,9a12.64,12.64,0,0,0,.13,4.19c.48,2.14-1.32,4.81-2.16,6.84a68.14,68.14,0,0,0-3.66,11.92,29.24,29.24,0,0,0-3.65-3.87,34.53,34.53,0,0,1-7.43-9.4A16,16,0,0,1,234,75.79a22.9,22.9,0,0,0,10.93,34.6c-.16,1.73-.29,3.46-.36,5.18-.37,9.12.14,18.14-1.33,27.22a60,60,0,0,1-3,11.66c-1.4,3.71-3.69,6.95-5.06,10.65-.83,2.24,2.11,3.5,3.67,2.23C249.09,159,249.66,140,250,128c.25-8,.18-16.05,1.27-24,.79-5.77,2.44-12.55,5.33-17.65,2.35,1.25,6.7.82,9.39,1,1.64.09,2.84.15,3.17.16C270.57,87.5,268.83,85.27,266.76,82.13Z"/><path class="cls-4" d="M112.62,464.3c-3.53,2-5.85,5.57-7.39,9.3-1.85,4.49-2.84,9.23-5.1,13.56-3.1,5.93-7.66,11.94-13.83,14.89a17.85,17.85,0,0,1-3.8,1.34c-9.75,2.18-32.29-9.49-36.52-1,3.6-7.21,13-5.38,19.8-6.28-7.51-1-13.2-5.71-21.57-5.66,7.33-3.67,15.58-.7,22.52,2.3L48,469.17l28.28,17.19a21.62,21.62,0,0,0-3.6-13A56.88,56.88,0,0,1,82,489a70.78,70.78,0,0,1,5.72-16.85c2.66-5.49,6.2-10.68,9.5-15.79a19.8,19.8,0,0,1,2.44-3.59c-.9.87,0,3,0,4.06a31,31,0,0,1-1.09,5.73c-1.2,5.5-3,10.81-4.2,16.32q-.4,1.88-.79,3.77c-.18.89-.2,3.05-.75,3.74C96.71,481.68,101.49,465.32,112.62,464.3Z"/><path class="cls-4" d="M249.65,778.5c.67,1,1.35,2,2.05,3,27.86,39.64,72.91,64.74,121.2,68.21a162.38,162.38,0,0,0,82.6-16.39q-7.08.21-14.13.18-3.94,1.57-8,2.92a157.64,157.64,0,0,1-133.59-16.66A152.32,152.32,0,0,1,262.4,786c-1.62-.92-3.24-1.84-4.85-2.79C254.89,781.7,252.27,780.12,249.65,778.5Z"/><path class="cls-4" d="M219,802.06a63.34,63.34,0,0,1,54.34-.86,47.82,47.82,0,0,1-27.12,9.18A47.3,47.3,0,0,1,219,802.06Z"/><path class="cls-4" d="M301,869.13a63.34,63.34,0,0,1,46.36-28.36,47.82,47.82,0,0,1-18.69,21.69A47.3,47.3,0,0,1,301,869.13Z"/><path class="cls-4" d="M373.43,888.47a63.34,63.34,0,0,1,33.11-43.1,47.82,47.82,0,0,1-9.67,26.95A47.3,47.3,0,0,1,373.43,888.47Z"/><path class="cls-4" d="M372.75,847.21a63.34,63.34,0,0,1-30.84-44.75,47.82,47.82,0,0,1,22.67,17.48A47.3,47.3,0,0,1,372.75,847.21Z"/><path class="cls-4" d="M301.52,823.87a63.34,63.34,0,0,1-5.94-54A47.82,47.82,0,0,1,307.25,796,47.3,47.3,0,0,1,301.52,823.87Z"/><path class="cls-9" d="M639.4,801.39l.55,0,2.86-.1h.59c-2.07.06-3.6.13-4.13.15Z"/><path class="cls-9" d="M643.08,808.3h0c-11.41,3.43-24.14,10.07-26.33,16-.09-.17-.18-.34-.26-.51a24,24,0,0,1-2-5.67,16.2,16.2,0,0,1,.06-7.76c1.28-4.58,10.38-7.5,20.38-8.64,1.42-.16,2.85-.29,4.28-.38C637.34,801.51,639.93,804.31,643.08,808.3Z"/><path class="cls-9" d="M654.73,820.93c2.15,1.71,7.56,7.74,7.63,3.78,0,10.31-1.26,21.1-6.15,23.35-6.58,3-15.21,1.41-21.31-2.65a16.73,16.73,0,0,0,4.16.24C645.36,845.18,651.07,831.94,654.73,820.93Z"/><path class="cls-3" d="M643.08,808.3c1.87,2.38.92,5.87.71,8.8s8.79,2.13,10.95,3.84h0c-3.67,11-9.37,24.25-15.68,24.72a16.73,16.73,0,0,1-4.16-.24c-7.2-1.27-14-6.91-16.9-13.27a15.52,15.52,0,0,1-1.58-5.92,5,5,0,0,1,.33-1.88C618.94,818.37,631.67,811.73,643.08,808.3Z"/><path class="cls-9" d="M710,794.82h0c-2.54,10-3.31,22.32.12,26.62-4.44-.23-8.67-1.76-11.28-4.53-3.22-3.4-.29-13.36,4.3-22.22C702.53,796,705.72,795.36,710,794.82Z"/><path class="cls-9" d="M705,791.38c-.63,1.12-1.14,2-1.46,2.63C704,793.12,704.47,792.24,705,791.38Z"/><path class="cls-9" d="M724.54,791.81c2.22-.83,9.09-2.15,6.19-4,7.62,4.6,15,10.32,14.52,14.95-.69,6.21-5.72,11.86-11.43,14.58a14.46,14.46,0,0,0,2-2.95C738.3,809.54,731,799.42,724.54,791.81Z"/><path class="cls-3" d="M716.46,824a13.36,13.36,0,0,1-5.08-1.46,4.32,4.32,0,0,1-1.25-1.1c-3.42-4.3-2.66-16.67-.12-26.62,2.59-.33,4.75,1.93,6.82,3.39s5.49-5.56,7.71-6.4h0c6.5,7.61,13.75,17.73,11.29,22.61a14.46,14.46,0,0,1-2,2.95A21.09,21.09,0,0,1,716.46,824Z"/><path class="cls-4" d="M663.35,807.23a419.53,419.53,0,0,0,50.51-44.33,58.69,58.69,0,0,0-1.93,17c-2.23,3.17-5.11,8.15-7,11.45L703.51,794l-.34.63a.16.16,0,0,0,0,.06.51.51,0,0,0,0,.45c.34.7,3.21.14,6.91-.33,2.59-.32,4.75,1.93,6.81,3.4s5.49-5.57,7.72-6.4c2-.73,7.56-1.85,6.83-3.35a1.64,1.64,0,0,0-.64-.61c-2.05-1.3-9.2-6.25-13.17-9a53.06,53.06,0,0,1,7.8-28.57c3.25-3.73,6.36-7.51,9.34-11.29,0,0,0,0,0-.05.22-.27.44-.56.66-.84,29.62-38,45.92-78.34,48.63-120.61a206,206,0,0,0-6.93-66.69q-1.45,6.81-3.17,13.58c3.38,16.42,5.64,35,4.48,52.79-2.65,41.1-18.57,80.41-47.5,117.52a151.87,151.87,0,0,1-38.48,15.24c-2.84.69-5.78,1.3-8.79,1.8a109.3,109.3,0,0,1-15.12,1.48h0c-1.27-1.27-3.12-2.87-5-4.41-1.48-1.21-3-2.4-4.24-3.38l-.38-.3c-1.32-1-2.31-1.78-2.59-2s-.35-.18-.47-.11c-.6.29-.5,2.79-.56,6v.07c-.06,2.29-2.29,3.87-3.83,5.48-.74.79.22,2.11,1.45,3.5a21.4,21.4,0,0,1,2.94,3.56,2.2,2.2,0,0,1,.16.45c.39,1.84.63,7,2.12,6.31a1.56,1.56,0,0,0,.51-.43c1.22-1.42,5.39-5.9,8.36-9.06a109.88,109.88,0,0,0,11.29-.68c2.93-.32,5.79-.75,8.57-1.27a150.14,150.14,0,0,0,35.1-11.26q-24.84,28.89-60.38,55.89c-4-.62-12.83-.48-18.15-.32l-4.12.16h-.1c-.68,0-.75.45-.41,1.16a50.69,50.69,0,0,0,4.32,5.74c1.87,2.38.92,5.87.7,8.8s8.8,2.13,10.95,3.84h0c1.76,1.41,5.72,5.73,7.12,5,.31-.15.49-.55.5-1.25C662.41,822.06,663,812.93,663.35,807.23Z"/><path class="cls-9" d="M655.24,749.06h0c-8.3-3.48-18.92-5.73-23.09-3.31.77-3.82,2.65-7.29,5.38-9.21,3.79-2.65,13.8,2.52,21.34,8.58-1.33-1-2.32-1.78-2.59-2C655.15,742.31,655.32,745.2,655.24,749.06Z"/><path class="cls-9" d="M656,762c.44,2,.69,8.16,2.64,5.88h0c-5,6-10.89,11.72-14.83,10.68-5.3-1.4-9.54-6.48-11.16-11.78a12.65,12.65,0,0,0,2.29,2.12C638.82,771.71,648.53,766.71,656,762Z"/><path class="cls-3" d="M655.24,749.06c-.05,2.29-2.29,3.87-3.82,5.48S655.53,760,656,762h0c-7.44,4.66-17.15,9.66-21.06,6.89a12.65,12.65,0,0,1-2.29-2.12,18.49,18.49,0,0,1-3.5-15.91,11.75,11.75,0,0,1,1.92-4.22,3.79,3.79,0,0,1,1.12-.95C636.32,743.33,646.94,745.58,655.24,749.06Z"/><path id="_Path_4" data-name="&lt;Path&gt;" class="cls-4" d="M52.87,429.44A96.32,96.32,0,0,0,42,422a52.32,52.32,0,0,1,15.35,1.21A50.14,50.14,0,0,1,48,409a56.54,56.54,0,0,1,13,8.79,53.86,53.86,0,0,1,2.54-13.2l3.55,12.07A24.19,24.19,0,0,1,75.4,406a61.43,61.43,0,0,0-6,17.84L83,411.65a32.89,32.89,0,0,0-7.6,12.71l13.74-7.16c-8.77,4.57-12,15.94-23.12,18.74-9.22,2.32-21.42-1.94-29.73-5C41.73,430.21,47.34,429.91,52.87,429.44Z"/><path class="cls-5" d="M55.79,313.87c-14.29,4.64-13,32.58-12,43.79.36,4.18.9,8.92,3,12.62,2.49,6,6.82,10.19,14.16,9,14.26-2.33,15-27,14.53-37.41C75,332,71.11,308.9,55.79,313.87Z"/><path class="cls-4" d="M43.82,380.31c-5.43-.58-10.33-3.11-15.06-5.59a73,73,0,0,0,25.34.73,10.68,10.68,0,0,0,3.68-1,9.71,9.71,0,0,0,2.69-2.55q5.45-6.77,10.21-14a70.15,70.15,0,0,1-5.61,17.5c7.25-.35,14.18-3.94,18.08-9.37-1.47,3.59-3.14,7.41-6.66,9.58-2.58,1.59-5.81,2.07-8.68,3.2a13.09,13.09,0,0,0-5.71,4.66C56.28,379.94,50.62,381,43.82,380.31Z"/><path class="cls-4" d="M86.36,512.36a265.58,265.58,0,0,1-14.89-36.55C61.53,445,55,409.62,60.17,377.29c.31-2,3.6-2.12,3.67,0,.51,16.41.51,32.66,2.62,49a260.19,260.19,0,0,0,10.9,48q3.94,12,9,23.41C86.26,502.61,86.25,507.49,86.36,512.36Z"/></g></g></svg>