<svg xmlns="http://www.w3.org/2000/svg" viewBox="0 0 334.98 347.84"><defs><style>.cls-1{fill:#fff;}.cls-2{fill:#2f3e52;}.cls-3{fill:none;stroke:#2f3e52;stroke-miterlimit:10;}.cls-4{fill:#ffb8b8;}</style></defs><title>Asset 1</title><g id="Layer_2" data-name="Layer 2"><g id="Layer_1-2" data-name="Layer 1"><path class="cls-1" d="M232.09,252.11s-54.85,22.31-88.44,28.61-40,7.19-41.46,4.2c-.63-1.33,3.49-2.5,3.49-2.5s-8.81-2.31,13.67-9.29c18.8-5.83,59.08-8.25,74.63-44.76Z"/><path class="cls-2" d="M232.28,252.13a4.11,4.11,0,0,1-.58.38l-.53.25-1,.47-2,.92-4,1.8c-2.68,1.16-5.36,2.35-8.07,3.46-5.4,2.27-10.85,4.4-16.32,6.48s-11,4-16.56,5.87-11.16,3.61-16.82,5.15c-2.82.79-5.69,1.46-8.54,2.14s-5.74,1.26-8.64,1.79c-5.8,1.09-11.57,1.85-17.35,2.81l-8.66,1.42c-2.89.46-5.77.94-8.68,1.37q-2.17.33-4.38.55a32.29,32.29,0,0,1-4.47.24,11.57,11.57,0,0,1-1.17-.11,8.83,8.83,0,0,1-1.21-.3,3.7,3.7,0,0,1-1.18-.72,2,2,0,0,1-.47-.55l-.2-.31a2.15,2.15,0,0,1-.15-.57,1.69,1.69,0,0,1,.33-1,3.08,3.08,0,0,1,.53-.55,6.67,6.67,0,0,1,1.07-.68,14.48,14.48,0,0,1,2.17-.89v1.73a3.72,3.72,0,0,1-2-1.18,2,2,0,0,1-.42-1.51,2.7,2.7,0,0,1,.51-1.23,9.88,9.88,0,0,1,3-2.44,50.32,50.32,0,0,1,6.44-3c2.19-.87,4.37-1.65,6.6-2.4s4.5-1.35,6.75-1.94c9-2.31,18-4.32,26.48-7.54a79.61,79.61,0,0,0,23.46-13.12,58.37,58.37,0,0,0,16-21.23v-.07a1.72,1.72,0,0,1,2.27-.86l.24.13,9.68,6.39,9.46,6.46,9.23,6.32Zm-.4,0c-3.4-2-6.72-3.91-10-5.8L212,240.76l-9.59-5.41L193,229.87l2.54-.8a62.71,62.71,0,0,1-6.83,12.54,59.56,59.56,0,0,1-9.7,10.55,68,68,0,0,1-11.82,8,89,89,0,0,1-13,5.61c-8.89,3.12-18.07,5-27.07,7-2.25.48-4.48,1-6.67,1.58s-4.41,1.25-6.57,2a46.67,46.67,0,0,0-6.28,2.5,8.37,8.37,0,0,0-2.47,1.72,1,1,0,0,0-.2.33V281a2,2,0,0,0,.94.58h.05a.89.89,0,0,1,.59,1.11h0a.9.9,0,0,1-.62.6A12.87,12.87,0,0,0,104,284a5.19,5.19,0,0,0-.81.45c-.24.15-.31.35-.29.22h0l.1.15a.76.76,0,0,0,.22.29,2,2,0,0,0,.66.43,7.91,7.91,0,0,0,.91.25c.34,0,.67.09,1,.12a48.17,48.17,0,0,0,8.6-.61c2.89-.37,5.76-.87,8.63-1.38s5.74-1.07,8.6-1.66c5.71-1.19,11.46-2.42,17.07-3.81,2.82-.7,5.61-1.51,8.41-2.28l4.18-1.26c1.4-.4,2.79-.8,4.18-1.24,5.56-1.7,11.13-3.39,16.69-5.15,2.78-.86,5.54-1.79,8.32-2.68S196,264,198.78,263l16.61-5.55,8.3-2.79,4.16-1.39,2.08-.69,1-.35a2.1,2.1,0,0,0,.48-.15c.09,0,.3,0,.48,0Z"/><line class="cls-3" x1="170.6" y1="255.74" x2="222.87" y2="255.74"/><line class="cls-3" x1="167.85" y1="257.4" x2="218.55" y2="257.4"/><line class="cls-3" x1="164.81" y1="259.05" x2="214.17" y2="259.05"/><line class="cls-3" x1="161.42" y1="260.71" x2="209.71" y2="260.71"/><line class="cls-3" x1="157.62" y1="262.36" x2="205.18" y2="262.36"/><line class="cls-3" x1="153.26" y1="264.02" x2="200.57" y2="264.02"/><line class="cls-3" x1="148.29" y1="265.67" x2="195.87" y2="265.67"/><line class="cls-3" x1="142.57" y1="267.33" x2="191.07" y2="267.33"/><line class="cls-3" x1="136.05" y1="268.98" x2="186.15" y2="268.98"/><line class="cls-3" x1="129.01" y1="270.64" x2="181.1" y2="270.64"/><line class="cls-3" x1="122.3" y1="272.29" x2="175.88" y2="272.29"/><line class="cls-3" x1="116.82" y1="273.95" x2="170.46" y2="273.95"/><line class="cls-3" x1="112.15" y1="275.6" x2="164.78" y2="275.6"/><line class="cls-3" x1="108.29" y1="277.25" x2="158.74" y2="277.25"/><line class="cls-3" x1="105.45" y1="278.91" x2="152.12" y2="278.91"/><line class="cls-3" x1="144.46" y1="280.56" x2="104.03" y2="280.56"/><line class="cls-3" x1="105.13" y1="282.22" x2="135.61" y2="282.22"/><line class="cls-3" x1="102.58" y1="283.87" x2="126.51" y2="283.87"/><line class="cls-3" x1="102.61" y1="285.53" x2="116.65" y2="285.53"/><path class="cls-1" d="M190.72,238.17s-6.44,12.23-23.44,31.23c-18.71,20.91-26.23,37.53-31.47,39.28s3.93-19,1.74-18.11-21,21.86-26.9,17.49,37.37-32.3,32.9-41.15c-3.15-6.23-54.34-27.88-87-75.79Z"/><path class="cls-2" d="M190.91,238.09a.73.73,0,0,1-.07.3l-.07.14-.14.28-.29.55-.58,1.09-1.21,2.14c-.82,1.42-1.7,2.81-2.58,4.19-1.78,2.76-3.64,5.47-5.55,8.14-3.84,5.33-8,10.46-12.25,15.44s-8.26,10-12.12,15.28-7.45,10.65-11.25,16c-1,1.35-1.93,2.69-3,4-.53.66-1.08,1.32-1.7,2a13.05,13.05,0,0,1-2.12,1.87,6.76,6.76,0,0,1-1.47.78,3.58,3.58,0,0,1-1.12.24,2.7,2.7,0,0,1-1.68-.46,2.86,2.86,0,0,1-1-1.27,4.17,4.17,0,0,1-.27-1,8,8,0,0,1,0-1.59,29.75,29.75,0,0,1,1-5.15c.43-1.62.9-3.21,1.37-4.77s1-3.14,1.31-4.57a3.16,3.16,0,0,1,.09-.48c0-.14,0-.3,0-.19a1,1,0,0,0,.06.25,1.5,1.5,0,0,0,.54.69,1.52,1.52,0,0,0,1.14.26,1.07,1.07,0,0,0,.27-.08h0c.1-.06-.09.06-.19.14-.54.41-1.16,1-1.76,1.49l-3.63,3.28c-2.45,2.19-5,4.36-7.57,6.4a41.52,41.52,0,0,1-8.55,5.43,12,12,0,0,1-2.61.79,5.5,5.5,0,0,1-3.06-.26c-.25-.13-.5-.28-.74-.43a2.44,2.44,0,0,1-.73-.77,2.66,2.66,0,0,1-.26-2,7.4,7.4,0,0,1,1.28-2.55,32.26,32.26,0,0,1,3.34-3.81c1.17-1.18,2.38-2.3,3.59-3.41,4.85-4.44,9.86-8.64,14.59-13.14a91.42,91.42,0,0,0,6.81-7,34.32,34.32,0,0,0,2.91-3.84,8.73,8.73,0,0,0,1.6-4.19,2.44,2.44,0,0,0-.74-1.77,14.34,14.34,0,0,0-1.75-1.53c-1.27-1-2.64-1.85-4-2.75-2.75-1.75-5.55-3.43-8.34-5.14-5.59-3.41-11.15-6.9-16.61-10.56a239.54,239.54,0,0,1-31-24.41,191.13,191.13,0,0,1-26-29.91L51.2,187l6,2C62.87,191,68.52,193,74.2,195s11.32,4,17,6L108,207.06l16.79,6.19,16.73,6.17,16.57,6.21Zm-.37.15L156.21,227l-17-5.55-16.81-5.59-16.76-5.57L89,204.68q-8.32-2.82-16.6-5.73c-5.5-1.95-11-3.85-16.55-5.85l2.42-3.1a187.24,187.24,0,0,0,25,29.65,267.36,267.36,0,0,0,29.92,25c5.27,3.84,10.68,7.49,16.15,11.08l8.2,5.42c1.36.93,2.72,1.84,4,2.89a15.44,15.44,0,0,1,1.91,1.73,3.47,3.47,0,0,1,.43.57,2.38,2.38,0,0,1,.35.65,3.83,3.83,0,0,1,.25,1.44,10,10,0,0,1-1.84,4.87,35.5,35.5,0,0,1-3,4c-2.18,2.49-4.51,4.81-6.87,7.09-4.75,4.53-9.65,8.88-14.33,13.42a52.35,52.35,0,0,0-6.38,7.17,5.55,5.55,0,0,0-.86,1.83v.4s0,0,.13.1a1.3,1.3,0,0,0,.33.17c1,.36,2.48-.07,3.82-.7a39.33,39.33,0,0,0,7.76-5.39c2.46-2.08,4.82-4.3,7.16-6.56,1.17-1.14,2.34-2.27,3.55-3.4.62-.57,1.2-1.13,1.95-1.72a4.86,4.86,0,0,1,.83-.54l.15-.07a2.5,2.5,0,0,1,.42-.12,2,2,0,0,1,.65,0,1.86,1.86,0,0,1,.78.32,2,2,0,0,1,.7.94,2.32,2.32,0,0,1,.13.55,4.31,4.31,0,0,1,0,1,4.12,4.12,0,0,1-.12.73c-.37,1.76-.83,3.3-1.3,4.89s-.92,3.12-1.32,4.66a26.82,26.82,0,0,0-.86,4.48,4.68,4.68,0,0,0,0,.86.84.84,0,0,0,0,.15.75.75,0,0,0-.28-.3,1,1,0,0,0-.52-.17h.06a3.27,3.27,0,0,0,.69-.37,16.54,16.54,0,0,0,3.08-3.1c1-1.22,2-2.52,2.9-3.83,3.77-5.29,7.53-10.71,11.56-15.91s8.25-10.27,12.72-15.11S174.88,259.08,179,254c2.05-2.53,4.06-5.1,6-7.74,1-1.32,1.9-2.65,2.82-4l1.37-2,.66-1,.32-.52.16-.26.08-.12a.1.1,0,0,0,.13-.14Z"/><line class="cls-3" x1="103.63" y1="239.2" x2="187.6" y2="239.2"/><line class="cls-3" x1="105.85" y1="240.85" x2="187.6" y2="240.85"/><line class="cls-3" x1="187.6" y1="242.51" x2="108.11" y2="242.51"/><line class="cls-3" x1="187.06" y1="244.16" x2="110.43" y2="244.16"/><line class="cls-3" x1="112.78" y1="245.82" x2="185.95" y2="245.82"/><line class="cls-3" x1="184.82" y1="247.47" x2="115.18" y2="247.47"/><line class="cls-3" x1="183.65" y1="249.13" x2="117.63" y2="249.13"/><line class="cls-3" x1="182.45" y1="250.78" x2="120.11" y2="250.78"/><line class="cls-3" x1="181.23" y1="252.44" x2="122.64" y2="252.44"/><line class="cls-3" x1="179.99" y1="254.09" x2="125.2" y2="254.09"/><line class="cls-3" x1="178.71" y1="255.75" x2="127.79" y2="255.75"/><line class="cls-3" x1="177.41" y1="257.4" x2="130.4" y2="257.4"/><line class="cls-3" x1="176.09" y1="259.06" x2="133.02" y2="259.06"/><line class="cls-3" x1="174.74" y1="260.71" x2="135.61" y2="260.71"/><line class="cls-3" x1="173.37" y1="262.37" x2="138.13" y2="262.37"/><line class="cls-3" x1="171.98" y1="264.02" x2="140.49" y2="264.02"/><line class="cls-3" x1="170.56" y1="265.67" x2="142.53" y2="265.67"/><line class="cls-3" x1="169.12" y1="267.33" x2="143.72" y2="267.33"/><line class="cls-3" x1="167.66" y1="268.98" x2="143.82" y2="268.98"/><line class="cls-3" x1="166.19" y1="270.64" x2="143.35" y2="270.64"/><line class="cls-3" x1="164.75" y1="272.29" x2="142.53" y2="272.29"/><line class="cls-3" x1="163.33" y1="273.95" x2="141.44" y2="273.95"/><line class="cls-3" x1="161.95" y1="275.6" x2="140.18" y2="275.6"/><line class="cls-3" x1="160.59" y1="277.26" x2="138.78" y2="277.26"/><line class="cls-3" x1="159.25" y1="278.91" x2="137.27" y2="278.91"/><line class="cls-3" x1="157.94" y1="280.57" x2="135.68" y2="280.57"/><line class="cls-3" x1="156.66" y1="282.22" x2="134.02" y2="282.22"/><line class="cls-3" x1="155.39" y1="283.88" x2="132.3" y2="283.88"/><line class="cls-3" x1="154.15" y1="285.53" x2="130.54" y2="285.53"/><line class="cls-3" x1="152.93" y1="287.19" x2="128.75" y2="287.19"/><line class="cls-3" x1="151.72" y1="288.84" x2="126.93" y2="288.84"/><line class="cls-3" x1="150.53" y1="290.5" x2="125.1" y2="290.5"/><line class="cls-3" x1="149.36" y1="292.15" x2="137.74" y2="292.15"/><line class="cls-3" x1="123.27" y1="292.15" x2="135.57" y2="292.15"/><line class="cls-3" x1="148.19" y1="293.81" x2="137.33" y2="293.81"/><line class="cls-3" x1="121.45" y1="293.81" x2="133.78" y2="293.81"/><line class="cls-3" x1="119.65" y1="295.46" x2="132" y2="295.46"/><line class="cls-3" x1="147.04" y1="295.46" x2="136.85" y2="295.46"/><line class="cls-3" x1="117.88" y1="297.12" x2="130.21" y2="297.12"/><line class="cls-3" x1="145.88" y1="297.12" x2="136.36" y2="297.12"/><line class="cls-3" x1="116.16" y1="298.77" x2="128.39" y2="298.77"/><line class="cls-3" x1="144.72" y1="298.77" x2="135.88" y2="298.77"/><line class="cls-3" x1="114.52" y1="300.43" x2="126.5" y2="300.43"/><line class="cls-3" x1="143.55" y1="300.43" x2="135.41" y2="300.43"/><line class="cls-3" x1="142.36" y1="302.08" x2="134.97" y2="302.08"/><line class="cls-3" x1="112.99" y1="302.08" x2="124.54" y2="302.08"/><line class="cls-3" x1="111.63" y1="303.74" x2="122.45" y2="303.74"/><line class="cls-3" x1="141.11" y1="303.74" x2="134.58" y2="303.74"/><line class="cls-3" x1="110.57" y1="305.39" x2="120.17" y2="305.39"/><line class="cls-3" x1="139.78" y1="305.39" x2="134.29" y2="305.39"/><line class="cls-3" x1="110.11" y1="307.05" x2="117.49" y2="307.05"/><line class="cls-3" x1="138.23" y1="307.05" x2="134.17" y2="307.05"/><path class="cls-1" d="M36.67,67.83h0c12-29.77,40.62-50.71,74-50.71,44.22,0,80.07,36.8,80.07,82.2,0,2.48-.13,4.93-.34,7.36h0v.05q-.34,3.94-1,7.76c-5.43,48,14.68,61.14,10.5,92.47-5.45,40.81-29.06,59.21-47.63,55.84-12.66-2.3-77-44.88-109-90.39S36.67,67.83,36.67,67.83Z"/><path class="cls-2" d="M36.58,67.66c-.18.2,0,0-.07.06v-.15l.09-.21.18-.41.37-.82L38,64.47c.5-1.09.94-2.21,1.54-3.26,1.15-2.11,2.2-4.28,3.54-6.27l1.92-3L47.07,49c1.35-2,3-3.76,4.51-5.63a83.29,83.29,0,0,1,22.47-18,78.46,78.46,0,0,1,103.46,25.9A84.1,84.1,0,0,1,189.2,77.86a86.08,86.08,0,0,1,2,28.89l-.6-.85h0l.67.18-.07.71c-.22,2.19-.53,4.52-.93,6.75a29.17,29.17,0,0,0-.41,3.34l-.31,3.36c-.09,1.12-.24,2.24-.29,3.36l-.1,3.38-.1,3.38c0,1.13.05,2.25.07,3.38a112.71,112.71,0,0,0,3.92,26.7c2.24,8.74,5.4,17.29,7.14,26.3l.57,3.39c.2,1.13.24,2.28.36,3.43a61.2,61.2,0,0,1,.25,6.9v.86l-.07.86-.14,1.72c-.1,1.15-.17,2.3-.29,3.44l-.47,3.4-.57,3.39A87.39,87.39,0,0,1,191,240.18a60.06,60.06,0,0,1-8,11.41,46.5,46.5,0,0,1-5,4.89,39.57,39.57,0,0,1-5.8,4.07,31.77,31.77,0,0,1-13.58,4.38,25.77,25.77,0,0,1-7.3-.44,36.92,36.92,0,0,1-6.73-2.58c-4.18-2-8.15-4.29-12.07-6.65s-7.75-4.84-11.53-7.39A370.19,370.19,0,0,1,78.06,214c-6.7-6.19-13.18-12.62-19.33-19.37A206.06,206.06,0,0,1,41.65,173.2a85.84,85.84,0,0,1-11.55-25c-.68-2.2-1.12-4.46-1.65-6.69a57.73,57.73,0,0,1-1.12-6.78c-.26-2.27-.51-4.55-.72-6.82s-.26-4.56-.25-6.84A137.36,137.36,0,0,1,29,93.9c.86-4.46,1.93-8.88,3.15-13.25.62-2.18,1.28-4.36,2-6.51q.54-1.61,1.13-3.21l.6-1.59.31-.79.16-.39.08-.2A1.1,1.1,0,0,1,36.58,67.66Zm.18.36v.09l-.08.2-.16.39-.31.79-.59,1.59q-.58,1.59-1.1,3.21c-.71,2.15-1.35,4.32-2,6.5Q30.77,87.32,29.67,94a124.63,124.63,0,0,0-1.75,27,100.67,100.67,0,0,0,1.43,13.4c.34,2.22.88,4.4,1.35,6.59a51.64,51.64,0,0,0,1.86,6.45,86.87,86.87,0,0,0,12,23.76c10.56,14.51,23.08,27.59,36.39,39.71a410.16,410.16,0,0,0,42.32,33.61c3.71,2.56,7.47,5,11.29,7.39s7.71,4.62,11.67,6.58a34.14,34.14,0,0,0,5.91,2.36,22.18,22.18,0,0,0,6.21.43,28.94,28.94,0,0,0,12.12-3.76,36.14,36.14,0,0,0,5.38-3.64,43.2,43.2,0,0,0,4.78-4.48,56.91,56.91,0,0,0,7.75-10.69,85.8,85.8,0,0,0,9.18-25l.65-3.3.54-3.32c.14-1.11.23-2.22.35-3.33l.17-1.66.08-.83v-.84a59.33,59.33,0,0,0-.1-6.69c-.1-1.11-.11-2.23-.28-3.34l-.48-3.32c-1.44-8.87-4.57-17.43-6.75-26.26a123.51,123.51,0,0,1-3.86-27c0-1.14-.12-2.28-.09-3.42l.08-3.41.08-3.42c0-1.14.16-2.28.23-3.41l.26-3.42a30.1,30.1,0,0,1,.36-3.41c.36-2.24.62-4.4.8-6.73l.59.89h0l-.65-.16.05-.69a84.08,84.08,0,0,0-2.72-28.14,81.37,81.37,0,0,0-12-25.44,84.63,84.63,0,0,0-9-10.8,82.25,82.25,0,0,0-10.72-9.07,79.68,79.68,0,0,0-25.3-11.89A78.79,78.79,0,0,0,101.9,19a75.49,75.49,0,0,0-27.1,7.77L71.64,28.4c-1.06.53-2,1.23-3.05,1.83s-2,1.22-3,1.91l-2.89,2.1L61.25,35.3l-1.36,1.15-2.73,2.31c-.89.8-1.7,1.67-2.56,2.5a30,30,0,0,0-2.49,2.56c-1.55,1.82-3.21,3.54-4.59,5.49l-2.15,2.86-1.93,3c-1.35,2-2.41,4.12-3.56,6.22-.6,1-1,2.15-1.55,3.23l-.74,1.63-.37.82-.18.41-.09.2v.15c-.12.09.05,0-.19.17Z"/><path class="cls-2" d="M150.71,262l-3.44-1.46c-1.13-.53-2.23-1.11-3.35-1.66s-2.22-1.14-3.3-1.75l-3.27-1.81-6.41-3.84-6.3-4c-8.33-5.48-16.36-11.4-24.2-17.55-3.94-3.05-7.76-6.26-11.58-9.47l-5.6-5c-1.89-1.63-3.69-3.35-5.51-5.07L75,207.83q-1.37-1.27-2.68-2.61l-5.27-5.32c-1.73-1.8-3.39-3.67-5.09-5.5-.84-.93-1.7-1.82-2.52-2.77L57,188.76l-2.41-2.87-1.2-1.44L52.3,183l-4.51-6a89.23,89.23,0,0,1-7.55-13,88.46,88.46,0,0,1-7.58-29,118.9,118.9,0,0,1,1.2-30A146.7,146.7,0,0,1,37,90.39a118,118,0,0,1,4.75-14.2l.11-.27.28.06h0l-.4.21a83.47,83.47,0,0,1,14.8-23.34A79.16,79.16,0,0,1,78.46,36a75.24,75.24,0,0,1,26.44-8.17,76.76,76.76,0,0,1,27.68,1.66,77.77,77.77,0,0,1,45,31.07,79.88,79.88,0,0,1,14.14,53l-.79-1.11h0l.87.22-.09.95c-.16,1.76-.4,3.72-.69,5.55l-.24,1.39a10,10,0,0,0-.17,1.35l-.24,2.75c-.13,1.84-.37,3.66-.42,5.5l-.15,5.54a110.79,110.79,0,0,0,2.13,22c1.44,7.24,3.64,14.32,5.69,21.51a76.56,76.56,0,0,1,3.51,22.21,86.45,86.45,0,0,1-3.52,22.2,75.27,75.27,0,0,1-9.18,20.47,46.14,46.14,0,0,1-16.1,15.46,31.34,31.34,0,0,1-5.15,2.28,27.38,27.38,0,0,1-5.47,1.3,23.83,23.83,0,0,1-5.61.14,12,12,0,0,1-1.39-.16c-.46-.08-.93-.12-1.39-.24a20,20,0,0,1-2.66-.88l.07-.19a19.79,19.79,0,0,0,2.65.81c.45.1.91.14,1.37.2a11.8,11.8,0,0,0,1.38.13,23.45,23.45,0,0,0,5.52-.26,26.89,26.89,0,0,0,5.35-1.39,30.72,30.72,0,0,0,5-2.34,40,40,0,0,0,8.68-6.79,51.2,51.2,0,0,0,6.85-8.66,74,74,0,0,0,8.73-20.26,87.28,87.28,0,0,0,3.23-21.82,74.82,74.82,0,0,0-3.64-21.7c-2.09-7.11-4.43-14.24-5.88-21.62a112.84,112.84,0,0,1-2.21-22.39l.14-5.63c0-1.88.29-3.75.42-5.63l.24-2.81a10.65,10.65,0,0,1,.18-1.42l.23-1.36c.29-1.84.5-3.58.68-5.53l.78,1.17h0l-.83-.21v-.9l.31-6.82c0-2.27-.09-4.55-.3-6.82a79.94,79.94,0,0,0-2.27-13.44,78,78,0,0,0-30.49-44,76.36,76.36,0,0,0-24.69-11.47A75.48,75.48,0,0,0,105,28.92a74.33,74.33,0,0,0-26.2,7.77l-3,1.62a13.88,13.88,0,0,0-1.48.87l-1.45.92c-1,.63-2,1.2-2.89,1.87l-2.77,2-1.38,1-1.3,1.12-2.61,2.25c-.86.76-1.64,1.61-2.46,2.41a31.09,31.09,0,0,0-2.4,2.47A79.31,79.31,0,0,0,42.43,76.46l-.11.27L42,76.67h0l.39-.2a127.77,127.77,0,0,0-7.59,28.7A118.09,118.09,0,0,0,34,134.79a89.45,89.45,0,0,0,2.71,14.54,81,81,0,0,0,12.46,26.62l4.48,5.92,1.11,1.49,1.2,1.42,2.38,2.86,2.38,2.86c.8.94,1.66,1.84,2.48,2.77,1.68,1.83,3.31,3.69,5,5.49l5.21,5.32q1.29,1.34,2.65,2.61l2.69,2.57q10.78,10.27,22.42,19.61c7.73,6.24,15.67,12.23,23.87,17.85s16.56,11.08,25.66,15.09Z"/><path class="cls-2" d="M149,261.86l-3.52-1.49c-1.16-.53-2.29-1.13-3.43-1.69s-2.27-1.16-3.38-1.79l-3.3-1.89-6.57-3.92-6.46-4.1c-8.54-5.58-16.81-11.56-24.89-17.8S81.54,216.39,74,209.46c-1.86-1.75-3.78-3.44-5.58-5.24L63,198.87c-1.81-1.8-3.51-3.71-5.26-5.57l-2.61-2.8-2.49-2.91-2.49-2.91c-.83-1-1.67-1.93-2.43-3l-4.72-6a88.77,88.77,0,0,1-8-13.18,90.68,90.68,0,0,1-8.24-29.57,118.63,118.63,0,0,1,.92-30.7,133.5,133.5,0,0,1,8.08-29.66l.28-.68.75.16h0l-1,.54A83.71,83.71,0,0,1,51.28,48.49,82,82,0,0,1,74.1,31.26a79.08,79.08,0,0,1,27.39-8.2,80.63,80.63,0,0,1,54.65,13.47,81.58,81.58,0,0,1,20.41,20,80,80,0,0,1,12.22,25.82,81,81,0,0,1,2.45,28.45l-.63-.88h0l.69.18-.07.75c-.17,1.82-.42,3.79-.73,5.67l-.25,1.42a10.31,10.31,0,0,0-.17,1.38l-.25,2.82-.26,2.82c-.08.94-.19,1.88-.19,2.82l-.17,5.67A111.49,111.49,0,0,0,191.37,156c1.48,7.42,3.8,14.65,5.93,22a76.27,76.27,0,0,1,3.59,22.61,86.74,86.74,0,0,1-3.72,22.58,74.93,74.93,0,0,1-9.52,20.75,53.29,53.29,0,0,1-7.34,8.77,41.15,41.15,0,0,1-9.2,6.76,32.21,32.21,0,0,1-5.25,2.27,27.92,27.92,0,0,1-5.56,1.3,25.07,25.07,0,0,1-5.7.15,13,13,0,0,1-1.42-.16c-.47-.08-.94-.12-1.41-.23a21,21,0,0,1-2.71-.87,21,21,0,0,0,2.72.84c.46.11.94.15,1.41.22a13,13,0,0,0,1.42.14,25,25,0,0,0,5.68-.21,27.76,27.76,0,0,0,5.51-1.36,32,32,0,0,0,5.18-2.32,40.81,40.81,0,0,0,9-6.81,52.82,52.82,0,0,0,7.17-8.78A74.25,74.25,0,0,0,196.34,223a88.19,88.19,0,0,0,3.45-22.36,75.15,75.15,0,0,0-3.7-22.26c-2.16-7.27-4.56-14.54-6.1-22a112.92,112.92,0,0,1-2.37-22.8l.13-5.74c0-1,.1-1.91.18-2.87l.24-2.87.24-2.87a10.87,10.87,0,0,1,.17-1.44l.23-1.39c.3-1.88.51-3.68.69-5.65l.62.93h0l-.69-.17.06-.71A79.86,79.86,0,0,0,187,82.92a78.17,78.17,0,0,0-12-25.23A79.57,79.57,0,0,0,101.72,25,77.36,77.36,0,0,0,75,33,80.07,80.07,0,0,0,52.66,49.77,81.87,81.87,0,0,0,37.52,73.24l-.3.7-.74-.16h0l1-.52a131.91,131.91,0,0,0-8,29.2,118,118,0,0,0-1,30.26,89.12,89.12,0,0,0,7.9,29.11,87.38,87.38,0,0,0,7.74,13l4.61,6.06c.75,1,1.58,2,2.4,3l2.46,2.91,2.46,2.91,2.58,2.8c1.74,1.86,3.41,3.77,5.2,5.58l5.38,5.41c1.79,1.81,3.69,3.5,5.53,5.26l2.78,2.61,2.85,2.54c1.91,1.68,3.79,3.4,5.72,5.06L92,223.86c1.94,1.65,4,3.19,5.94,4.8,8,6.32,16.17,12.39,24.64,18.06l6.4,4.17,6.52,4,3.32,1.89c1.1.64,2.21,1.26,3.36,1.82s2.26,1.18,3.41,1.73Z"/><line class="cls-3" x1="189.82" y1="239.2" x2="112.17" y2="239.2"/><line class="cls-3" x1="114.45" y1="240.85" x2="188.88" y2="240.85"/><line class="cls-3" x1="116.76" y1="242.51" x2="187.86" y2="242.51"/><line class="cls-3" x1="119.12" y1="244.16" x2="186.78" y2="244.16"/><line class="cls-3" x1="121.52" y1="245.82" x2="185.63" y2="245.82"/><line class="cls-3" x1="123.96" y1="247.47" x2="184.38" y2="247.47"/><line class="cls-3" x1="126.46" y1="249.13" x2="183.03" y2="249.13"/><line class="cls-3" x1="129.01" y1="250.78" x2="181.56" y2="250.78"/><line class="cls-3" x1="131.63" y1="252.44" x2="179.95" y2="252.44"/><line class="cls-3" x1="134.32" y1="254.09" x2="178.18" y2="254.09"/><line class="cls-3" x1="137.1" y1="255.75" x2="176.2" y2="255.75"/><line class="cls-3" x1="140.01" y1="257.4" x2="173.96" y2="257.4"/><line class="cls-3" x1="143.09" y1="259.06" x2="171.28" y2="259.06"/><line class="cls-3" x1="146.45" y1="260.71" x2="167.97" y2="260.71"/><path class="cls-2" d="M144.89,123.62a69.37,69.37,0,0,0-17.32,5c-5.45,2.43-10.65,5.8-14.11,10.59a20.16,20.16,0,0,0-3.46,8,17.48,17.48,0,0,0,.45,8.49,18,18,0,0,0,4.6,7,49.7,49.7,0,0,0,6.83,5.53c4.91,3.38,10.09,6.61,14.93,10.45a58,58,0,0,1,12.78,13.57,50.73,50.73,0,0,1,4.45,8.3,54.62,54.62,0,0,1,2.82,9,68.29,68.29,0,0,1,1.4,9.21c.14,1.53.28,3.05.35,4.59s.16,3.07.18,4.6A102.56,102.56,0,0,1,153,264.2a128.76,128.76,0,0,1-17.41,32.17,221.31,221.31,0,0,1-24,27.37c-8.64,8.5-17.75,16.49-27.14,24.1,8.95-8.13,17.79-16.38,26.06-25.17,4.16-4.37,8.14-8.9,12-13.51s7.54-9.38,10.93-14.32a127.33,127.33,0,0,0,16.37-31.74A99,99,0,0,0,155,228c0-1.49-.1-3-.21-4.46s-.21-3-.36-4.45A62.94,62.94,0,0,0,153,210.4a50.67,50.67,0,0,0-2.69-8.3,46.86,46.86,0,0,0-4-7.69,58.39,58.39,0,0,0-11.81-12.88c-4.54-3.8-9.58-7.08-14.45-10.79a52.46,52.46,0,0,1-7-6.17,20.47,20.47,0,0,1-4.73-8.3,16.93,16.93,0,0,1-.56-4.77,24.92,24.92,0,0,1,.62-4.68,21.66,21.66,0,0,1,4-8.42c3.83-5,9.29-8.19,14.89-10.48a60.65,60.65,0,0,1,8.67-2.76A67.66,67.66,0,0,1,144.89,123.62Z"/><path class="cls-2" d="M94.92,342.76c4-3.2,7.78-6.68,11.47-10.22s7.23-7.25,10.68-11a229.31,229.31,0,0,0,19.08-24,159.14,159.14,0,0,0,15.15-26.66,105.26,105.26,0,0,0,8.3-29.45c.31-2.54.52-5.09.61-7.64s0-5.11-.07-7.66a103.4,103.4,0,0,0-1.75-15.2,62,62,0,0,0-4.66-14.49,47.57,47.57,0,0,0-8.55-12.51,70.13,70.13,0,0,0-11.78-9.67c-2.12-1.43-4.29-2.78-6.47-4.12s-4.47-2.48-6.66-3.84a33.82,33.82,0,0,1-6.17-4.68,16.72,16.72,0,0,1-4.22-6.48,15.07,15.07,0,0,1-.46-7.69A25.93,25.93,0,0,1,112,140.2h.09a25.73,25.73,0,0,0-2.39,7.25,14.89,14.89,0,0,0,.61,7.49,16.21,16.21,0,0,0,4.18,6.23,33.22,33.22,0,0,0,6.12,4.51c2.19,1.32,4.48,2.44,6.72,3.75s4.41,2.63,6.57,4a65.06,65.06,0,0,1,12,9.71,48.07,48.07,0,0,1,8.76,12.76,63,63,0,0,1,4.64,14.76A96.26,96.26,0,0,1,160.88,226c.07,2.57.09,5.15,0,7.72s-.38,5.13-.72,7.68a116.05,116.05,0,0,1-8.51,29.52,166.64,166.64,0,0,1-14.78,27A201.94,201.94,0,0,1,117.63,322,179.53,179.53,0,0,1,95,342.84Z"/><path class="cls-2" d="M42.47,61.6c.24-.62.56-1.21.84-1.82l1-1.75c.71-1.13,1.44-2.26,2.22-3.35s1.61-2.15,2.45-3.19l2.64-3c.87-1,1.89-1.91,2.82-2.87a33.21,33.21,0,0,1,2.92-2.77l3.06-2.62c.51-.43,1-.88,1.54-1.3l1.61-1.2A141.7,141.7,0,0,1,91.2,21.35l3.64-1.7c1.22-.54,2.48-1,3.72-1.51l7.46-3c1.23-.52,2.53-.88,3.79-1.32l3.81-1.26c2.54-.83,5.07-1.71,7.64-2.46,5.17-1.37,10.32-2.81,15.51-4,5.24-1,10.46-2.16,15.7-3.15C147.34,4.37,142.17,5.67,137,7c-2.58.68-5.1,1.53-7.65,2.29l-7.64,2.3c-2.53.82-5,1.77-7.53,2.62l-3.76,1.32c-1.25.46-2.52.84-3.74,1.38l-7.38,3c-1.23.51-2.47,1-3.68,1.52L92,23.17A158.19,158.19,0,0,0,64.48,38.94l-1.63,1.14c-.53.39-1,.82-1.56,1.23L58.2,43.8c-1.07.79-2,1.74-3,2.62s-2,1.75-2.91,2.71L49.53,52c-.89,1-1.73,2-2.59,3A41.75,41.75,0,0,0,42.47,61.6Z"/><path class="cls-2" d="M42.47,56.24a44,44,0,0,1,4.43-7.47A64.21,64.21,0,0,1,52.44,42,76.6,76.6,0,0,1,65.81,30.9a85.77,85.77,0,0,1,15.45-8.06l2-.82c.68-.26,1.37-.48,2.06-.72,1.38-.46,2.73-1,4.14-1.38l4.19-1.22,4.24-1a125.37,125.37,0,0,1,17.24-2.5,154.28,154.28,0,0,1,17.41-.4A203.12,203.12,0,0,1,167,19.16l-8.58-1.36c-2.87-.4-5.74-.71-8.61-1.07s-5.76-.51-8.64-.77-5.78-.28-8.66-.38a146.39,146.39,0,0,0-34.41,3.1A97,97,0,0,0,66.2,31.55,76.42,76.42,0,0,0,52.8,42.4a63.84,63.84,0,0,0-5.68,6.53A47.32,47.32,0,0,0,42.47,56.24Z"/><path class="cls-4" d="M199.87,208.38h0c-7.86,38.83-26.15,42.49-12.71,49.36s98.05-9.85,128.17-71.87a183.32,183.32,0,0,0,18.42-92.34c-.08-2-.22-4-.44-6s-.39-3.12-.39-3.12h0a84.07,84.07,0,1,0-160.58,45.14h0s.62,9.1,21.88,44.87C200.59,185.21,201.15,197.83,199.87,208.38Z"/><path class="cls-2" d="M200.05,208.47l-.07.09.06-.11c-.6,3.23-1.24,6.46-2.09,9.65a95.76,95.76,0,0,1-3,9.44,108.58,108.58,0,0,1-8.52,17.86c-.8,1.42-1.61,2.84-2.25,4.26s-1,2.85-.56,3.86a7,7,0,0,0,3.08,2.7c.34.17.69.38,1,.53l1,.37a9,9,0,0,0,1.09.27,9.19,9.19,0,0,0,1.12.21,44.11,44.11,0,0,0,9.53.09c3.21-.27,6.42-.7,9.61-1.29a164.37,164.37,0,0,0,37.11-11.59A160.44,160.44,0,0,0,280.64,225c2.6-1.94,5-4.07,7.49-6.18l3.55-3.31c1.18-1.11,2.28-2.3,3.43-3.44a112,112,0,0,0,12.27-15,118,118,0,0,0,9.43-17l1-2.21,1-2.25,1.91-4.51c.64-1.5,1.16-3,1.75-4.57s1.19-3,1.68-4.6c1-3.11,2.06-6.2,2.88-9.37s1.66-6.32,2.4-9.51a186.41,186.41,0,0,0,3.08-19.36,184.65,184.65,0,0,0,.83-19.59,159.3,159.3,0,0,0-1.23-19.51l1.3.46h0l-1.07,1-.23-1.44A82.53,82.53,0,0,0,319.41,52a81.07,81.07,0,0,0-11.17-13.5,83.23,83.23,0,0,0-29.31-18.7A85.82,85.82,0,0,0,262,15.51a82.66,82.66,0,0,0-94.46,79.32,81.82,81.82,0,0,0,6.2,34.17l1.39,3.37-3.37-1.3h0l2.1-1.57v.45a3.62,3.62,0,0,0,.13.59c.09.4.2.8.32,1.21.23.81.51,1.63.79,2.45.58,1.63,1.2,3.27,1.88,4.88,1.33,3.24,2.81,6.44,4.35,9.62,3.08,6.35,6.42,12.59,9.86,18.78l2.62,4.62c.86,1.52,1.77,3.1,2.54,4.75a45.44,45.44,0,0,1,3.36,10.26,58.11,58.11,0,0,1,1.06,10.68c0,1.79-.05,3.57-.19,5.35S200.32,206.64,200.05,208.47Zm-.36-.18c.12-1.69.28-3.45.31-5.23s0-3.53,0-5.29a57,57,0,0,0-1.43-10.42,43.93,43.93,0,0,0-3.62-9.79c-.79-1.54-1.71-3-2.63-4.55l-2.76-4.56c-3.62-6.11-7.15-12.29-10.45-18.62-1.64-3.16-3.23-6.36-4.68-9.65-.74-1.64-1.43-3.3-2.06-5-.31-.86-.62-1.71-.88-2.6-.14-.44-.27-.89-.38-1.35-.06-.22-.11-.47-.17-.71a2.25,2.25,0,0,1-.07-.38,2,2,0,0,0-.07-.47l-.22-2.41,2.32.85h0l-2,2.07a85.19,85.19,0,0,1,10.79-86.25,87.45,87.45,0,0,1,12.66-13.15,84.56,84.56,0,0,1,32.12-16.86,86.32,86.32,0,0,1,36.15-2.08,85.16,85.16,0,0,1,17.57,4.69,87,87,0,0,1,16.12,8.35,82.7,82.7,0,0,1,14,11.55,83.67,83.67,0,0,1,11.17,14.21A85.19,85.19,0,0,1,333.74,84.3l-1.3-.48h0l1.15-1,.15,1.45a192,192,0,0,1-8,78.11c-.45,1.59-1,3.12-1.56,4.69s-1,3.13-1.64,4.66l-1.81,4.61-.91,2.3-1,2.26a113.85,113.85,0,0,1-36,46.88A149.31,149.31,0,0,1,266.37,239a172.34,172.34,0,0,1-17.75,9,160.87,160.87,0,0,1-38,11.37,96.7,96.7,0,0,1-9.92,1.08,46.52,46.52,0,0,1-10.11-.37,11.33,11.33,0,0,1-1.29-.28,11,11,0,0,1-1.29-.35l-1.3-.53c-.41-.19-.76-.42-1.14-.62a16,16,0,0,1-2.2-1.53,6.76,6.76,0,0,1-1.79-2.38,5.2,5.2,0,0,1-.2-3.06,11.16,11.16,0,0,1,.91-2.56,48,48,0,0,1,2.46-4.38c1.7-2.81,3.37-5.59,4.9-8.47a96.52,96.52,0,0,0,4.15-8.84,124.48,124.48,0,0,0,5.85-18.7l.06-.11Z"/><path class="cls-4" d="M199.87,209.71h0c-7.86,37.82-26.15,41.38-12.71,48.08s98.05-9.59,128.17-70a174.48,174.48,0,0,0,18.42-89.93c-.08-2-.22-3.93-.44-5.87s-.39-3-.39-3h0c-6-39.51-40.93-69.83-83.15-69.83-46.43,0-84.07,36.66-84.07,81.87a79.78,79.78,0,0,0,6.61,32h0s.62,8.87,21.88,43.7C200.59,187.14,201.15,199.43,199.87,209.71Z"/><path class="cls-2" d="M200,209.75l-.05.06v-.05a112,112,0,0,1-5.47,18.59,109.48,109.48,0,0,1-8.83,17.25,45.15,45.15,0,0,0-2.32,4.22,9.27,9.27,0,0,0-.72,2.24,3.58,3.58,0,0,0,.37,2.21,5.27,5.27,0,0,0,1.56,1.71,14,14,0,0,0,2,1.26,13.34,13.34,0,0,0,2.18.92,22,22,0,0,0,2.34.47,47.33,47.33,0,0,0,9.62.16c3.21-.24,6.41-.61,9.59-1.16a165.47,165.47,0,0,0,37-11,171,171,0,0,0,17.33-8.54,155.86,155.86,0,0,0,16.14-10.59,123.68,123.68,0,0,0,14.5-12.71,106.91,106.91,0,0,0,21.67-31.64,186.39,186.39,0,0,0,7.23-17.9l1.47-4.6c.24-.77.5-1.53.73-2.3L327,156c.42-1.55.87-3.1,1.26-4.66l1.09-4.7a177.73,177.73,0,0,0,3.1-19,179.69,179.69,0,0,0,.91-19.27,161,161,0,0,0-1.16-19.2l1.23.44h0l-1,.87-.21-1.33a80.42,80.42,0,0,0-23.75-45.5A81.49,81.49,0,0,0,294.77,33a85.4,85.4,0,0,0-67-10,83,83,0,0,0-52.64,42.3,79.55,79.55,0,0,0-2.26,67.41l.6,1.37-1.4-.52h0l.85-.64a16.13,16.13,0,0,0,.57,2.39c.24.82.53,1.62.82,2.43q.89,2.42,1.93,4.79c1.37,3.17,2.89,6.28,4.46,9.36,3.15,6.16,6.55,12.2,10,18.19l2.64,4.48c.87,1.49,1.78,3,2.56,4.56a43.32,43.32,0,0,1,3.46,9.87A60.5,60.5,0,0,1,200,209.75Zm-.18-.09a60.65,60.65,0,0,0-.91-20.58,42.69,42.69,0,0,0-3.57-9.66c-.79-1.52-1.7-3-2.61-4.46L190,170.52c-3.56-6-7-12-10.23-18.15-1.6-3.08-3.16-6.2-4.57-9.38q-1.07-2.38-2-4.84c-.3-.82-.6-1.64-.86-2.49a16.28,16.28,0,0,1-.65-2.66l-.14-1,1,.36h0l-.8.85a81.13,81.13,0,0,1,1.75-68.76A82.91,82.91,0,0,1,195.72,37a86.57,86.57,0,0,1,66.83-17.88,88,88,0,0,1,17.2,4.4,86.32,86.32,0,0,1,15.91,7.86,83.24,83.24,0,0,1,13.94,11,82.21,82.21,0,0,1,24,46.5l-1.23-.46h0l1-.89.17,1.34a161.73,161.73,0,0,1,1.11,19.46,181.17,181.17,0,0,1-1,19.42,179,179,0,0,1-3.19,19.18l-1.12,4.73c-.4,1.57-.86,3.13-1.29,4.69l-.65,2.34c-.23.78-.49,1.54-.74,2.32l-1.5,4.63a187.65,187.65,0,0,1-7.34,18,108,108,0,0,1-22,31.87,123.51,123.51,0,0,1-14.67,12.74A156.74,156.74,0,0,1,265,238.79a171.77,171.77,0,0,1-17.45,8.5,166.12,166.12,0,0,1-37.18,10.89q-4.79.79-9.65,1.12a47.79,47.79,0,0,1-9.72-.21,22.45,22.45,0,0,1-2.4-.49,13.8,13.8,0,0,1-2.27-1,14.4,14.4,0,0,1-2.07-1.31,5.69,5.69,0,0,1-1.67-1.85,4,4,0,0,1-.4-2.48,9.65,9.65,0,0,1,.76-2.35,45.47,45.47,0,0,1,2.36-4.25,109.13,109.13,0,0,0,8.89-17.16,111.7,111.7,0,0,0,5.54-18.52h0Z"/><path class="cls-4" d="M202.06,210.6h0c-7.55,37.14-25.12,40.64-12.2,47.21S284,248.39,313,189.08a174.68,174.68,0,0,0,17.69-88.31q-.11-2.91-.42-5.76c-.21-1.9-.38-3-.38-3h0a80.72,80.72,0,1,0-154.2,43.23h0s.6,8.71,21,42.91C202.75,188.44,203.29,200.51,202.06,210.6Z"/><path class="cls-2" d="M202.09,210.61h0a112.1,112.1,0,0,1-5.21,18.11,107.28,107.28,0,0,1-8.43,16.85c-.79,1.36-1.59,2.71-2.25,4.13s-1.18,3-.56,4.46a7.65,7.65,0,0,0,3.38,3.08c.35.18.68.39,1,.54l1.08.42a19.7,19.7,0,0,0,2.28.51,43.62,43.62,0,0,0,9.38.2,93.42,93.42,0,0,0,9.34-1.14,156.42,156.42,0,0,0,35.94-11,153,153,0,0,0,32.39-19c2.51-1.89,4.87-4,7.25-6l3.43-3.22c1.15-1.06,2.2-2.24,3.3-3.35.54-.57,1.1-1.12,1.62-1.7l1.54-1.78c1-1.19,2.09-2.34,3-3.6l2.88-3.72,2.68-3.87a111.9,111.9,0,0,0,9-16.53l1-2.14c.32-.72.6-1.45.9-2.17l1.79-4.36c.61-1.45,1.09-2.94,1.64-4.41s1.11-2.94,1.57-4.44c.93-3,1.94-6,2.71-9,.4-1.52.86-3,1.2-4.56L327,148.3a180.29,180.29,0,0,0,3-18.6,177.17,177.17,0,0,0,.86-18.82,160.69,160.69,0,0,0-1.11-18.79l.2.07h0l-.16.14v-.22a79.87,79.87,0,0,0-12-31.65,78.58,78.58,0,0,0-10.73-13.21A79.72,79.72,0,0,0,293.8,36.55a81.78,81.78,0,0,0-15.19-7.65A82.61,82.61,0,0,0,262,24.63a80.31,80.31,0,0,0-86.27,110.54l.15.35-.36-.14h0l.22-.17a28.09,28.09,0,0,0,1.37,4.85q.87,2.39,1.88,4.72c1.33,3.12,2.8,6.18,4.32,9.21,3,6.06,6.33,12,9.71,17.88l2.57,4.39c.85,1.46,1.73,2.92,2.48,4.45a42.73,42.73,0,0,1,3.34,9.61A60.75,60.75,0,0,1,202.09,210.61Zm0,0a60.8,60.8,0,0,0-.73-20.23,42.6,42.6,0,0,0-3.37-9.56c-.75-1.52-1.63-3-2.49-4.43L192.87,172c-3.4-5.87-6.71-11.81-9.78-17.86-1.53-3-3-6.09-4.36-9.21q-1-2.33-1.9-4.73a28,28,0,0,1-1.41-4.93V135l.26.1h0l-.21.22A80.58,80.58,0,0,1,177,68.83a81.12,81.12,0,0,1,85.09-44.65A79.72,79.72,0,0,1,307.19,47a78.91,78.91,0,0,1,10.75,13.29,80.15,80.15,0,0,1,12,31.79l-.2-.07h0l.17-.15v.22A160.79,160.79,0,0,1,331,110.87a177.37,177.37,0,0,1-.9,18.84,183.25,183.25,0,0,1-2.92,18.63l-1,4.6c-.33,1.54-.8,3-1.19,4.56-.76,3.05-1.77,6-2.7,9-.46,1.5-1,3-1.56,4.45s-1,3-1.63,4.42l-1.78,4.37c-.3.73-.58,1.46-.9,2.18l-1,2.14a111.94,111.94,0,0,1-9,16.6l-2.68,3.89-2.88,3.74c-.93,1.27-2,2.42-3,3.62l-1.55,1.78c-.52.59-1.08,1.14-1.62,1.71-1.1,1.12-2.15,2.3-3.3,3.37L288,222c-2.38,2.06-4.74,4.14-7.25,6a144.92,144.92,0,0,1-15.63,10.58,165.13,165.13,0,0,1-16.85,8.49,156.75,156.75,0,0,1-36,10.9,93.67,93.67,0,0,1-9.37,1.12,43.84,43.84,0,0,1-9.43-.23,19.88,19.88,0,0,1-2.31-.53l-1.11-.44a7.24,7.24,0,0,1-1-.55,7.83,7.83,0,0,1-3.46-3.18,4.08,4.08,0,0,1-.19-2.37,9.73,9.73,0,0,1,.77-2.25c.67-1.43,1.48-2.78,2.27-4.14a107.13,107.13,0,0,0,8.47-16.81,112,112,0,0,0,5.08-18h0Z"/><line class="cls-3" x1="189.11" y1="239.2" x2="265.42" y2="239.2"/><line class="cls-3" x1="188.16" y1="240.85" x2="262.26" y2="240.85"/><line class="cls-3" x1="258.94" y1="242.51" x2="187.17" y2="242.51"/><line class="cls-3" x1="255.44" y1="244.16" x2="186.17" y2="244.16"/><line class="cls-3" x1="251.73" y1="245.82" x2="185.17" y2="245.82"/><line class="cls-3" x1="247.78" y1="247.47" x2="184.2" y2="247.47"/><line class="cls-3" x1="243.54" y1="249.13" x2="183.33" y2="249.13"/><line class="cls-3" x1="238.96" y1="250.78" x2="182.65" y2="250.78"/><line class="cls-3" x1="234.96" y1="252.43" x2="182.35" y2="252.43"/><line class="cls-3" x1="229.39" y1="254.09" x2="182.7" y2="254.09"/><line class="cls-3" x1="223" y1="255.75" x2="184.06" y2="255.75"/><line class="cls-3" x1="215.99" y1="257.4" x2="186.6" y2="257.4"/><path class="cls-2" d="M317.76,52.93A77.87,77.87,0,0,1,331.18,79.2a91.19,91.19,0,0,1,3.74,29.45,103.52,103.52,0,0,1-5.63,29.25,136.49,136.49,0,0,1-12.8,26.93,179.48,179.48,0,0,1-17.62,24,253.22,253.22,0,0,1-20.75,21.34,273.36,273.36,0,0,1-48,35.09,300.62,300.62,0,0,1-54.28,24.19c-9.41,3.13-19,5.78-28.61,8.07s-19.38,4.12-29.17,5.56a400.75,400.75,0,0,1-59.13,4.2q-14.82-.1-29.59-1.3A274.44,274.44,0,0,1,0,282.22a372.51,372.51,0,0,0,58.92,3.11A401.32,401.32,0,0,0,117.59,280a360,360,0,0,0,57-14.17,300.59,300.59,0,0,0,53.5-24.07,273.06,273.06,0,0,0,47.43-34.42c14.53-13.1,27.78-27.74,38.32-44.19a133.71,133.71,0,0,0,13-26.14A102.48,102.48,0,0,0,333,108.55a89.69,89.69,0,0,0-2.81-29.06,88,88,0,0,0-5-13.83A68.33,68.33,0,0,0,317.76,52.93Z"/><path class="cls-2" d="M317.76,52.93a89.53,89.53,0,0,1,10.69,22.28,104.47,104.47,0,0,1,4.89,24.28,106.26,106.26,0,0,1-1,24.77,118.45,118.45,0,0,1-6.47,23.94,157.42,157.42,0,0,1-25.36,42.48,214.35,214.35,0,0,1-16.81,18.26,247.79,247.79,0,0,1-18.57,16.47c-25.88,20.68-55.73,36.17-87.16,46.4a336.3,336.3,0,0,1-48.11,11.9,393.5,393.5,0,0,1-49.28,5.12,393.26,393.26,0,0,0,49.2-5.6,337.28,337.28,0,0,0,48-12c31.33-10.32,61-25.87,86.74-46.55a246.87,246.87,0,0,0,18.55-16.34,213.57,213.57,0,0,0,16.8-18.13c10.48-12.71,19.39-26.82,25.38-42.19a117.83,117.83,0,0,0,6.52-23.79,106.46,106.46,0,0,0,1.07-24.64,104.1,104.1,0,0,0-4.64-24.24A89.42,89.42,0,0,0,317.76,52.93Z"/><path class="cls-2" d="M259,119.3a82.71,82.71,0,0,1,8.87-3.42c3-1,6.08-1.86,9.18-2.59a79.29,79.29,0,0,1,19-2.16,44,44,0,0,1,19,4.23,32,32,0,0,1,8.07,5.72,17.25,17.25,0,0,1,4.81,9,25.89,25.89,0,0,1-.22,10,47.9,47.9,0,0,1-2.93,9.31,96.9,96.9,0,0,1-9.41,16.74,182.85,182.85,0,0,1-24.86,28.79c4.16-4.77,8.22-9.62,12-14.66s7.51-10.13,10.88-15.42a103.69,103.69,0,0,0,8.74-16.53,47.45,47.45,0,0,0,2.68-8.79,23.08,23.08,0,0,0,.15-8.86,14.25,14.25,0,0,0-3.93-7.51,30.43,30.43,0,0,0-7.29-5.27A43.16,43.16,0,0,0,296,113.46a85.84,85.84,0,0,0-18.67,1.26A118.7,118.7,0,0,0,259,119.3Z"/><path class="cls-1" d="M172.31,129.58s38.91,16.56,43.34,44.08c5.36,33.27-21.46,57-21.46,57s14-32.57,0-56.2C172.93,138.68,172.31,129.58,172.31,129.58Z"/><path class="cls-2" d="M172.19,129.41a.5.5,0,0,1,.31,0h.12l.24.08.47.17.94.35,1.86.75c1.23.53,2.46,1.06,3.66,1.64q3.63,1.72,7.11,3.75a86.71,86.71,0,0,1,13.19,9.31,60.26,60.26,0,0,1,5.85,5.66,52.94,52.94,0,0,1,5.08,6.44,37,37,0,0,1,6,15.34,57.12,57.12,0,0,1-.25,16.23,72.15,72.15,0,0,1-4.28,15.5,87.93,87.93,0,0,1-7.3,14.37c-1.44,2.27-3,4.46-4.66,6.59a63.37,63.37,0,0,1-5.38,6.14l-4.57,4.53,2.28-6.19c.74-2,1.42-4.16,2-6.28s1.14-4.28,1.6-6.44a83.83,83.83,0,0,0,1.81-13.08,57.42,57.42,0,0,0,0-6.56q-.18-3.27-.61-6.48a48.73,48.73,0,0,0-1.37-6.32c-.29-1-.64-2-1-3.07a25.45,25.45,0,0,0-1.22-3c-.48-1-.93-1.93-1.44-2.87s-1.1-2-1.65-2.92c-1.1-2-2.22-3.94-3.28-5.94q-3.26-6-6.24-12.06c-2-4.07-3.87-8.2-5.55-12.42-.86-2.1-1.61-4.25-2.32-6.41-.34-1.08-.67-2.17-1-3.27-.13-.56-.27-1.11-.37-1.67a6.6,6.6,0,0,0-.15-.85L172,130v-.34A.45.45,0,0,1,172.19,129.41Zm.23.33c.05,0,.11,0,.1-.07V130l.11.4c.07.27.17.53.25.8.17.53.39,1,.57,1.57.4,1,.84,2.07,1.29,3.1.92,2,1.93,4,2.94,6q3.06,6,6.44,11.81c2.19,3.91,4.52,7.76,6.81,11.62,1.14,1.93,2.33,3.84,3.5,5.75.58,1,1.15,1.89,1.74,2.92s1.17,2.06,1.67,3.14a45.46,45.46,0,0,1,4,13.5,62.52,62.52,0,0,1,.29,13.93A86.66,86.66,0,0,1,200,218.15a79.54,79.54,0,0,1-4.44,13.06l-2.29-1.66A70.12,70.12,0,0,0,203.71,218a63.32,63.32,0,0,0,7.69-13.73,59.4,59.4,0,0,0,2.43-7.5,53.12,53.12,0,0,0,1.25-7.76,49.49,49.49,0,0,0,.05-7.82,55.92,55.92,0,0,0-1.06-7.69A40.89,40.89,0,0,0,208,159.63a64.74,64.74,0,0,0-10.08-11.71,112,112,0,0,0-12.25-9.81q-3.24-2.25-6.61-4.35c-1.13-.69-2.25-1.38-3.4-2.05l-1.72-1-.87-.49-.44-.24-.22-.12-.11-.06S172.42,129.8,172.42,129.74Z"/><path class="cls-2" d="M194.25,230.56c0-.08-.11,0-.06-.07l.07-.09.14-.18.28-.37.54-.75,1.06-1.52c.69-1,1.36-2.05,2-3.1,1.28-2.1,2.46-4.26,3.57-6.45a77.51,77.51,0,0,0,5.29-13.68,59.17,59.17,0,0,0,1-28.88,47.72,47.72,0,0,0-5.92-13.3,90.18,90.18,0,0,0-8.79-11.85c-3.22-3.73-6.7-7.24-10.28-10.64s-7.35-6.6-11.22-9.61l.91-.83q8,11.46,15.56,23.16,3.81,5.84,7.55,11.75,1.84,3,3.63,6a51.86,51.86,0,0,1,3.33,6.29,37.88,37.88,0,0,1,2.5,14,56,56,0,0,1-.41,7.06c-.26,2.34-.65,4.66-1.14,7A101.22,101.22,0,0,1,199.93,218c-.79,2.2-1.68,4.35-2.62,6.49-.47,1.07-1,2.13-1.45,3.18l-.77,1.57-.4.78-.2.39-.1.19-.05.1S194.3,230.53,194.25,230.56Zm-.11.17a.29.29,0,0,1,0-.23v-.1l.09-.2.18-.4.34-.8.67-1.61c.44-1.08.86-2.15,1.27-3.24.82-2.17,1.56-4.37,2.27-6.57a105.17,105.17,0,0,0,3.36-13.44c.42-2.26.74-4.55.94-6.83a54.27,54.27,0,0,0,.23-6.86A37.77,37.77,0,0,0,201,177.21a60.26,60.26,0,0,0-3.23-6q-1.76-3-3.6-5.95-3.62-5.94-7.36-11.82l-15-23.51h0a.62.62,0,0,1,.92-.81c3.81,3.21,7.44,6.57,11,10.05s7,7.05,10.23,10.77a121.09,121.09,0,0,1,9.17,11.71,48.67,48.67,0,0,1,6.62,13.44c2.58,9.78,1.85,20.17-1,29.72a72,72,0,0,1-5.85,13.74,67.37,67.37,0,0,1-3.93,6.33c-.7,1-1.44,2-2.2,3-.38.49-.77,1-1.17,1.45l-.6.71-.31.35-.16.17-.08.09s-.26.1-.32.07Z"/><path class="cls-2" d="M172.32,129.56c3.57,3.27,7,6.7,10.35,10.18s6.65,7,9.73,10.78a114.86,114.86,0,0,1,8.69,11.63,43.82,43.82,0,0,1,3.46,6.39,42,42,0,0,1,2.12,7A61.92,61.92,0,0,1,208,190a72.2,72.2,0,0,1-1.77,14.43,68.87,68.87,0,0,1-12,26.27h0a73.53,73.53,0,0,0,7.1-12.61,77,77,0,0,0,4.45-13.75,71.3,71.3,0,0,0,.69-28.73,41.37,41.37,0,0,0-2-6.94,36.66,36.66,0,0,0-3.43-6.36,116.33,116.33,0,0,0-8.83-11.49q-4.74-5.48-9.7-10.78t-10.13-10.38Z"/><path class="cls-2" d="M172.33,129.53a153.52,153.52,0,0,1,23.52,18.78,95.69,95.69,0,0,1,9.86,11.42,49.61,49.61,0,0,1,7,13.36,39.73,39.73,0,0,1,1.64,15,58.16,58.16,0,0,1-3.27,14.78,84.05,84.05,0,0,1-6.46,13.66A88.06,88.06,0,0,1,196,228.94l-.08-.06c1.53-2,2.94-4.06,4.29-6.17s2.64-4.26,3.84-6.45a87.41,87.41,0,0,0,6.12-13.65,57.17,57.17,0,0,0,3.23-14.53,38.84,38.84,0,0,0-1.4-14.73,48.9,48.9,0,0,0-6.82-13.23,95.09,95.09,0,0,0-9.68-11.45,153.22,153.22,0,0,0-23.21-19.05Z"/><path class="cls-2" d="M242.44,85.08a12.83,12.83,0,0,1,3.62-1.34,16.51,16.51,0,0,1,3.87-.31,24.66,24.66,0,0,1,3.88.44,34.17,34.17,0,0,1,3.77,1l.73.22-.27.77a54.72,54.72,0,0,1-2.93,6.82,27.4,27.4,0,0,1-1.95,3.25,10.31,10.31,0,0,1-2.86,2.92,10.68,10.68,0,0,1-3.94,1.23,28.9,28.9,0,0,1-3.82.3,36,36,0,0,1-7.48-.68l-1.58-.31.36-1.46A27.33,27.33,0,0,1,235,94.09a21.24,21.24,0,0,1,1.79-3.59,16.69,16.69,0,0,1,2.5-3.12A13.57,13.57,0,0,1,242.44,85.08Zm.15.26a9.34,9.34,0,0,0-2.73,2.53,11.86,11.86,0,0,0-1.58,3.33,57.3,57.3,0,0,0-1.47,7.25l-1.23-1.77c2.31.28,4.7.55,7,.7a24.83,24.83,0,0,0,3.46,0,8.48,8.48,0,0,0,3.05-.68,8.24,8.24,0,0,0,2.31-2.15,25.35,25.35,0,0,0,2-2.89,53.09,53.09,0,0,0,3.21-6.39l.46,1a37.12,37.12,0,0,0-7.2-2.19,12.07,12.07,0,0,0-3.76,0A9.84,9.84,0,0,0,242.59,85.34Z"/><path class="cls-2" d="M243.54,87a16.42,16.42,0,0,1,6.7-2.1,29,29,0,0,1,7.07.29l.36.05-.18.32a57.84,57.84,0,0,1-3.75,5.76,30,30,0,0,1-2.2,2.66,10.16,10.16,0,0,1-6,3.52,30.18,30.18,0,0,1-3.41.64,48.75,48.75,0,0,1-6.89.41h-.74l.27-.67c.45-1.1.94-2.19,1.49-3.24a23,23,0,0,1,1.93-3A16.71,16.71,0,0,1,243.54,87Zm0,.09a13.92,13.92,0,0,0-4.94,4.85,33,33,0,0,0-2.92,6.3l-.46-.68a63.68,63.68,0,0,0,6.76-.39,29.26,29.26,0,0,0,3.32-.53,9.23,9.23,0,0,0,5.7-3.15,29.35,29.35,0,0,0,2.21-2.56A57.32,57.32,0,0,0,257,85.32l.18.37a29,29,0,0,0-7-.58,14.18,14.18,0,0,0-6.66,2Z"/><path class="cls-2" d="M244.12,88a19.16,19.16,0,0,1,6.34-2.34,30.61,30.61,0,0,1,6.78-.41h.23l-.14.19a65.41,65.41,0,0,1-4.17,5.19,23.83,23.83,0,0,1-5,4.46,23.88,23.88,0,0,1-6.34,2.12,65.28,65.28,0,0,1-6.59,1h-.47l.22-.41a28.69,28.69,0,0,1,3.83-5.63A20.13,20.13,0,0,1,244.12,88Zm0,0a20.38,20.38,0,0,0-2.74,2A18.69,18.69,0,0,0,239,92.43a32.82,32.82,0,0,0-3.59,5.69l-.24-.36a65.21,65.21,0,0,0,6.54-1,23.52,23.52,0,0,0,6.25-2,23.54,23.54,0,0,0,4.93-4.33,65.09,65.09,0,0,0,4.21-5.12l.1.2a30.57,30.57,0,0,0-6.74.27,19.05,19.05,0,0,0-6.32,2.28Z"/><path class="cls-2" d="M257.47,85.52a58.83,58.83,0,0,1,2.23,11.69,26,26,0,0,1-.22,6.1,11.21,11.21,0,0,1-1,3.09,6.43,6.43,0,0,1-2.34,2.67,6.63,6.63,0,0,1-3.49.91,12,12,0,0,1-3.3-.49,19.57,19.57,0,0,1-5.61-2.74,35.67,35.67,0,0,1-4.66-3.88,30.22,30.22,0,0,1-3.9-4.59l.21-.21c3.41,2.08,6.63,4.28,9.94,6.14a41.71,41.71,0,0,0,5,2.46c1.64.67,3.39,1,4.67.31a6.26,6.26,0,0,0,2.59-4.08,24.38,24.38,0,0,0,.63-5.65,64,64,0,0,0-1-11.66Z"/><path class="cls-2" d="M256.58,87a32.47,32.47,0,0,1,.87,9.4,19.14,19.14,0,0,1-.92,4.65,7,7,0,0,1-2.72,3.82,6.59,6.59,0,0,1-4.7.56,16.75,16.75,0,0,1-4.47-1.66A34.7,34.7,0,0,1,237,98.28h0a52.34,52.34,0,0,0,7.85,5.12,19.24,19.24,0,0,0,4.35,1.6,6.43,6.43,0,0,0,4.47-.34,6.06,6.06,0,0,0,2.69-3.64A16.76,16.76,0,0,0,257,96.4a58.51,58.51,0,0,0-.5-9.37Z"/><path class="cls-2" d="M257.38,85.54a49.79,49.79,0,0,1,1.15,10.81,21.35,21.35,0,0,1-.73,5.44,7.58,7.58,0,0,1-3.14,4.6,7.67,7.67,0,0,1-5.59.56,19.51,19.51,0,0,1-5.14-2.06,40.11,40.11,0,0,1-8.63-6.68l.07-.07a65.51,65.51,0,0,0,9,5.87,23.17,23.17,0,0,0,4.9,2,5.79,5.79,0,0,0,7.89-4.38,20.77,20.77,0,0,0,.86-5.27,49.49,49.49,0,0,0-.75-10.77Z"/><circle class="cls-2" cx="209.29" cy="102.15" r="7.46"/><circle class="cls-1" cx="208.29" cy="100.15" r="3.38"/><circle class="cls-2" cx="277.72" cy="69.06" r="7.46"/><circle class="cls-1" cx="276.72" cy="67.06" r="3.38"/><path class="cls-2" d="M165.68,98.87a52.9,52.9,0,0,1-.25-10.12,78.48,78.48,0,0,1,1.29-10.09,83.26,83.26,0,0,1,2.62-9.86c.58-1.6,1.15-3.21,1.8-4.78l1-2.35c.33-.79.69-1.56,1.08-2.32a88.71,88.71,0,0,1,25.94-31.29l2-1.57L203.32,25c1.42-1,2.79-2,4.24-2.86,2.93-1.74,5.8-3.59,8.86-5.08A145.41,145.41,0,0,1,235.1,9a188.14,188.14,0,0,1,39.47-9q-4.92,1.17-9.84,2.26c-3.26.81-6.5,1.73-9.74,2.59s-6.42,2-9.62,3S239,10,235.91,11.19a162.12,162.12,0,0,0-18.16,8.41c-3,1.51-5.77,3.32-8.62,5-1.41.89-2.74,1.88-4.11,2.82l-2,1.43-2,1.54-2,1.53-1,.76-.94.82-3.73,3.29-3.52,3.52c-1.17,1.18-2.21,2.47-3.34,3.68A88.68,88.68,0,0,0,175.33,60.4,83.36,83.36,0,0,0,168.15,79,71.74,71.74,0,0,0,165.68,98.87Z"/><rect class="cls-2" x="273.69" y="224.82" width="5.09" height="13.14" rx="2.54" ry="2.54"/><rect class="cls-2" x="262.96" y="224.82" width="5.09" height="13.14" rx="2.54" ry="2.54"/><rect class="cls-2" x="221" y="224.82" width="5.09" height="13.14" rx="2.54" ry="2.54"/><rect class="cls-2" x="210.99" y="224.82" width="5.09" height="13.14" rx="2.54" ry="2.54"/><circle class="cls-2" cx="124.48" cy="105.27" r="7.46"/><circle class="cls-1" cx="123.48" cy="103.27" r="3.38"/><path class="cls-1" d="M181.07,115.78c-3.47-5.08-12.23-17.06-16.87-16.13-5.88,1.18-7.53,7.53-7.53,10.11,0,6.35,2.59,9.88,4.94,9.88,1.8,0,13.09-1,18.3-1.42a1.56,1.56,0,0,0,1.16-2.44"/><path class="cls-2" d="M180.94,115.86a67.78,67.78,0,0,0-5.68-6.82c-2-2.14-4-4.33-6.12-6.24a12.09,12.09,0,0,0-3.41-2.34,3.16,3.16,0,0,0-.9-.23,2.39,2.39,0,0,0-.93.09,5.29,5.29,0,0,0-1,.28l-.49.17-.47.24a6.46,6.46,0,0,0-2.86,3,11.41,11.41,0,0,0-1.24,4,8.7,8.7,0,0,0-.06,2c.06.71.15,1.4.26,2.09a13.56,13.56,0,0,0,1.21,3.82c.56,1.11,1.49,2.06,2.14,2.15H162l1.08-.07,2.2-.14c3-.16,5.92-.27,8.89-.29h5.59a1.08,1.08,0,0,0,.72-.14,1.27,1.27,0,0,0,.44-1.58l.25-.17a1.86,1.86,0,0,1,0,2.48,2.22,2.22,0,0,1-1.29.69l-1.1.22c-1.46.3-2.93.55-4.4.79q-4.41.72-8.85,1.13c-.74.06-1.49.12-2.24.16h-1.81a3.91,3.91,0,0,1-.89-.15,5.3,5.3,0,0,1-2.55-1.72,9.07,9.07,0,0,1-1.37-2.26,14.88,14.88,0,0,1-1.07-4.74,17.48,17.48,0,0,1,0-2.35,10.8,10.8,0,0,1,.4-2.41,13.73,13.73,0,0,1,2-4.25,12.58,12.58,0,0,1,3.44-3.17l.51-.31.54-.24a6.28,6.28,0,0,1,1.11-.41,3.75,3.75,0,0,1,1.26-.22,4.42,4.42,0,0,1,1.27.18,12.33,12.33,0,0,1,4.1,2.33c4.79,3.9,7.66,9.28,10.95,14.2Z"/><path class="cls-2" d="M180.12,117q-5.78-.68-11.56-1.45L157,114l.27-.31.47,1.71-.21-.18,10.86,1.33q5.43.67,10.85,1.45c-3.63-.34-7.27-.69-10.89-1.08l-10.88-1.2h-.16v-.16l-.48-1.71-.1-.37.38.06,11.52,1.69Q174.38,116.07,180.12,117Z"/><path class="cls-2" d="M179.28,117.95a1.43,1.43,0,0,0,1.32-1.3c.06-.7-.56-1.21-.92-1.79-.83-1.12-1.69-2.22-2.56-3.3a68.53,68.53,0,0,0-5.6-6.17,26.51,26.51,0,0,0-3.15-2.67,6.86,6.86,0,0,0-3.63-1.5,7.64,7.64,0,0,0-3.62,1.49,8.71,8.71,0,0,0-2.48,3.1,10.9,10.9,0,0,0-1.08,3.85,16.06,16.06,0,0,0,.36,4,9.46,9.46,0,0,0,1.53,3.62,4,4,0,0,0,1.36,1.24,3.08,3.08,0,0,0,1.78.24C168.13,118.49,173.73,118.37,179.28,117.95Zm0,.1c-5.56.48-11.07,1.34-16.65,1.72a7.33,7.33,0,0,1-1.12,0,3.29,3.29,0,0,1-1.18-.35,5,5,0,0,1-1.73-1.53,10.26,10.26,0,0,1-1.66-4,16.88,16.88,0,0,1-.28-4.3,11.72,11.72,0,0,1,1.26-4.13,9.48,9.48,0,0,1,2.76-3.32,8.23,8.23,0,0,1,4-1.56,7.38,7.38,0,0,1,4,1.68,27,27,0,0,1,3.17,2.78,68.9,68.9,0,0,1,5.41,6.4c.85,1.11,1.67,2.24,2.48,3.37l.61.85a1.5,1.5,0,0,1,.32,1,1.53,1.53,0,0,1-1.38,1.34Z"/><path class="cls-2" d="M157.08,110.69a15,15,0,0,0,.56,4,7.89,7.89,0,0,0,1.9,3.46,3.47,3.47,0,0,0,1.66,1,2.81,2.81,0,0,0,1,0l1-.08,4-.32,8.05-.62,2-.15,1-.08a3.09,3.09,0,0,0,.92-.13,1.1,1.1,0,0,0,.67-1.34,3.37,3.37,0,0,0-.51-.78l-.61-.8c-1.62-2.15-3.3-4.24-5.11-6.23a33.6,33.6,0,0,0-5.92-5.39,5.39,5.39,0,0,0-3.65-1.14,7.8,7.8,0,0,0-3.57,1.64,8.85,8.85,0,0,0-2.43,3.13,10,10,0,0,0-1,3.87,10,10,0,0,1,.9-3.92,9,9,0,0,1,2.38-3.27,8,8,0,0,1,3.67-1.76,3.82,3.82,0,0,1,2.07.21,9.12,9.12,0,0,1,1.84.92,32.13,32.13,0,0,1,6.05,5.41c1.83,2,3.53,4.09,5.17,6.24l.61.81a3.64,3.64,0,0,1,.57.92,1.58,1.58,0,0,1-1,1.94,1.88,1.88,0,0,1-.56.13h-.5l-1,.07-2,.14-8.07.55-4,.26-1,.06a3,3,0,0,1-1,0,3.69,3.69,0,0,1-1.77-1.07,8.07,8.07,0,0,1-1.84-3.6A15.08,15.08,0,0,1,157.08,110.69Z"/><rect class="cls-2" x="180.4" y="224.82" width="5.09" height="13.14" rx="2.54" ry="2.54"/><rect class="cls-2" x="170.39" y="224.82" width="5.09" height="13.14" rx="2.54" ry="2.54"/><rect class="cls-2" x="133.65" y="224.82" width="5.09" height="13.14" rx="2.54" ry="2.54"/><rect class="cls-2" x="123.63" y="224.82" width="5.09" height="13.14" rx="2.54" ry="2.54"/><path class="cls-1" d="M28.08,136.28s41.5,3.66,64.75,23.74,33.53,53.69,26.95,97.76c0,0-44.87-9.59-73.45-59.71C29.33,168.25,28.08,136.28,28.08,136.28Z"/><path class="cls-2" d="M28,136.13a3.53,3.53,0,0,1,.85,0h.69l1.38.09q1.38.09,2.75.24c1.83.17,3.66.4,5.48.65,3.64.53,7.28,1.12,10.88,1.93s7.19,1.67,10.73,2.73c1.79.48,3.53,1.1,5.29,1.68s3.48,1.26,5.21,1.95a85.64,85.64,0,0,1,19.6,10.72,69.11,69.11,0,0,1,15.42,16.25c1,1.58,2,3.14,3,4.74l2.64,4.93,2.27,5.09c.71,1.71,1.29,3.48,1.94,5.21a123.85,123.85,0,0,1,5,21.53A175.11,175.11,0,0,1,121,258l-.16,1.35-1.37-.29c-1.75-.37-3.38-.82-5-1.31L112,257c-.81-.27-1.61-.57-2.42-.86-1.62-.56-3.19-1.24-4.78-1.88s-3.12-1.4-4.68-2.12-3.07-1.52-4.57-2.33-3-1.61-4.47-2.53-2.94-1.77-4.38-2.69l-4.21-3a123.62,123.62,0,0,1-29.06-28.86l-3-4.18c-1-1.42-1.8-2.91-2.7-4.37l-2.66-4.39c-.88-1.46-1.6-3-2.41-4.54a133.71,133.71,0,0,1-7.83-18.94,159.15,159.15,0,0,1-4.91-19.81q-.9-5-1.42-10.08c-.19-1.68-.32-3.38-.45-5.07,0-.85-.11-1.69-.13-2.54v-2.27A2.07,2.07,0,0,1,28,136.13Zm.28.29a1,1,0,0,1,.09.18v.29l.07.63.16,1.25c.1.84.25,1.67.36,2.5.25,1.66.52,3.33.83,5s.65,3.3,1,4.94l1.12,4.91a166.26,166.26,0,0,0,5.89,19.2A146.68,146.68,0,0,0,46,193.5c.83,1.44,1.56,2.93,2.47,4.33L51.18,202c.9,1.4,1.74,2.83,2.69,4.2l3,4c1,1.32,1.94,2.7,3,4L63,218c2.06,2.61,4.44,4.93,6.73,7.33.58.6,1.13,1.22,1.72,1.8l1.83,1.69L77,232.25c1.25,1.09,2.57,2.11,3.85,3.17s2.56,2.12,3.93,3.06l4,2.91c1.38.93,2.8,1.79,4.2,2.69s2.84,1.73,4.29,2.55,2.88,1.67,4.38,2.39c3,1.53,6,3,9,4.22a75.35,75.35,0,0,0,9.34,3.29l-1.52,1.06.83-5.4.41-2.7.28-2.72c.18-1.81.4-3.62.55-5.44l.31-5.46c.14-1.82.07-3.64.08-5.47s0-3.65-.13-5.47l-.36-5.46-.69-5.42a93.12,93.12,0,0,0-5.64-21,79.56,79.56,0,0,0-10.55-18.82c-.49-.75-1.13-1.39-1.68-2.1L100.26,170a24.76,24.76,0,0,0-1.79-2l-1.84-1.95a70,70,0,0,0-8-7.11A90,90,0,0,0,70,148.33c-1.66-.72-3.31-1.44-5-2s-3.37-1.33-5.1-1.88-3.43-1.19-5.18-1.68-3.47-1.08-5.23-1.54l-2.63-.72-2.65-.66c-1.76-.47-3.55-.85-5.33-1.26s-3.57-.78-5.37-1.11l-2.7-.51-1.35-.24-.68-.11a1.22,1.22,0,0,1-.56-.2Z"/><path class="cls-2" d="M119.79,257.78a175.16,175.16,0,0,0-5.23-18.87,170.64,170.64,0,0,0-7.38-18.13,182.26,182.26,0,0,0-20.52-33.25,200.78,200.78,0,0,0-26.89-28.35q-7.38-6.42-15.35-12.12A154,154,0,0,0,27.9,136.65l.57-.53c2.57,5.79,5.59,11.42,8.7,17s6.45,11,9.89,16.34c6.88,10.71,14.29,21.09,22,31.19S85,220.49,93.57,230s17.35,18.67,26.47,27.56l-.59.42c-5.62-11.44-11.91-22.57-18.54-33.47S87.2,202.93,79.66,192.64Q74,184.9,68,177.45c-4-5-8.13-9.84-12.4-14.58s-8.72-9.33-13.27-13.8S33,140.38,28.08,136.28c4.93,4.06,9.74,8.27,14.35,12.69s9.1,9,13.39,13.71,8.5,9.54,12.53,14.5,8,10,11.73,15.15c7.58,10.29,14.67,20.93,21.37,31.81s13,22,18.66,33.48a.37.37,0,0,1-.58.43h0q-13.75-13.31-26.59-27.52T68.35,201.19c-3.9-5.05-7.72-10.16-11.41-15.37s-7.24-10.51-10.68-15.89-6.74-10.84-9.87-16.41-6.11-11.21-8.7-17.08a.41.41,0,0,1,.21-.54.42.42,0,0,1,.36,0,154.66,154.66,0,0,1,16.59,10.52q8,5.73,15.37,12.21A201.41,201.41,0,0,1,87.1,187.16a175.78,175.78,0,0,1,20.39,33.45,171,171,0,0,1,7.23,18.22A175.19,175.19,0,0,1,119.79,257.78Z"/><path class="cls-2" d="M28.18,136.25A157.15,157.15,0,0,0,34.9,154.4q3.88,8.87,8.5,17.37a237.44,237.44,0,0,0,21,32.38,270,270,0,0,0,25.9,28.63,303,303,0,0,0,29.54,24.92l-.11.17a206.8,206.8,0,0,1-30.8-23.63,216.27,216.27,0,0,1-25.76-29.11,238.75,238.75,0,0,1-20.65-32.88q-4.46-8.63-8.17-17.61A157.55,157.55,0,0,1,28,136.3Z"/><path class="cls-2" d="M120.27,253.56a80,80,0,0,0-1.81-9.55q-1.15-4.72-2.68-9.35a157.88,157.88,0,0,0-7.23-18,185.11,185.11,0,0,0-20.3-33.08c-2-2.58-4-5.1-6.08-7.58L79,172.26c-1.1-1.19-2.17-2.4-3.3-3.56a136.45,136.45,0,0,0-14.29-13.07,159.66,159.66,0,0,0-15.92-10.92,94,94,0,0,0-17.42-8.34v-.2a48,48,0,0,1,9.41,2.74,78,78,0,0,1,8.9,4.16,92.69,92.69,0,0,1,16.1,11.2c10,8.42,18.62,18.33,26.46,28.7A185.87,185.87,0,0,1,109,216.37a158.3,158.3,0,0,1,7.09,18.17q1.5,4.65,2.6,9.4a80.17,80.17,0,0,1,1.73,9.6Z"/><path class="cls-2" d="M33.66,138a86.45,86.45,0,0,1,9.7,2.67c3.18,1.06,6.33,2.24,9.41,3.58a117.85,117.85,0,0,1,17.77,9.44A112.28,112.28,0,0,1,86.39,166.1,104.92,104.92,0,0,1,99.6,181.28c2,2.7,3.71,5.6,5.48,8.46,1.57,3,3.24,5.9,4.54,9,1.48,3,2.55,6.22,3.76,9.35.53,1.59,1,3.21,1.49,4.82l.74,2.41c.21.81.39,1.63.59,2.45a142.63,142.63,0,0,1,3.61,40h-.05a147.68,147.68,0,0,0-4-39.88c-.2-.81-.37-1.63-.58-2.44l-.73-2.4c-.49-1.6-1-3.21-1.47-4.8-1.2-3.12-2.26-6.31-3.72-9.32-1.29-3.09-2.94-6-4.5-9-1.75-2.85-3.44-5.75-5.43-8.44a104.56,104.56,0,0,0-13.11-15.18,112,112,0,0,0-15.77-12.42A117.65,117.65,0,0,0,52.7,144.4c-3.07-1.36-6.2-2.55-9.38-3.63a86.4,86.4,0,0,0-9.68-2.71Z"/></g></g></svg>